<svg width="80" height="80" viewBox="0 0 80 80" fill="none" xmlns="http://www.w3.org/2000/svg">
<rect width="80" height="80" rx="40" fill="#F2F2FF"/>
<path d="M46.6638 56.8536C46.6827 59.9993 43.5588 62.5681 39.6872 62.5911C35.8156 62.6142 32.6615 60.0828 32.6431 56.9371C32.6241 53.7914 46.6454 53.7079 46.6638 56.8536Z" fill="#FDB269"/>
<path d="M42.1131 54.6586C42.383 56.2733 42.0896 58.017 41.4873 59.4866C41.0075 60.6585 40.3212 61.7341 39.4435 62.5832C39.5249 62.5852 39.6048 62.5924 39.6872 62.5919C43.5588 62.5688 46.6822 60.0001 46.6638 56.8543C46.6566 55.6589 44.6261 54.9307 42.1137 54.6591L42.1131 54.6586Z" fill="#FEECA8"/>
<path d="M46.4803 56.8547V56.8547C46.4984 59.8653 43.4939 62.3849 39.6861 62.4076C35.8784 62.4303 32.8443 59.9466 32.8266 56.936L32.8266 56.936C32.8247 56.6199 32.9967 56.3229 33.3521 56.0461C33.7088 55.7684 34.2312 55.5275 34.8769 55.3301C36.1663 54.936 37.8986 54.73 39.6405 54.7196C41.3824 54.7092 43.117 54.8946 44.4111 55.2733C45.0591 55.463 45.5843 55.6976 45.9442 55.9711C46.3029 56.2437 46.4784 56.5386 46.4803 56.8547Z" stroke="black" stroke-width="0.367073"/>
<path d="M56.8254 48.4525L56.3138 48.4556L54.9813 38.1996C54.0815 31.8507 50.6109 27.2416 45.3504 25.3728C45.4503 24.9306 45.5077 24.4725 45.5051 23.9995C45.4851 20.6662 42.7684 17.9801 39.4376 18.0001C36.1062 18.0201 33.4217 20.7385 33.4417 24.0712C33.4448 24.597 33.5221 25.1043 33.6512 25.5895C28.3984 27.6822 24.8633 32.4769 24.4433 38.381L23.1733 48.6524L22.4133 48.657C19.9316 48.6719 17.9318 50.6969 17.9466 53.1796C17.9615 55.6628 19.9853 57.6638 22.4666 57.6489L56.8787 57.4434C59.3604 57.4286 61.3602 55.4035 61.3454 52.9208C61.3305 50.4377 59.3066 48.4367 56.8254 48.4515V48.4525ZM40.8469 22.7492C40.8428 22.7794 40.8367 22.8727 40.8228 22.9296C40.8213 22.9362 40.8192 22.9429 40.8167 22.949C40.7773 23.0536 40.7368 23.1586 40.6876 23.2596C40.682 23.2713 40.6748 23.2821 40.6671 23.2924C40.6554 23.3088 40.5355 23.4784 40.4638 23.5578C40.4597 23.5624 40.4551 23.567 40.4505 23.5716C40.3645 23.6526 40.2692 23.7243 40.1714 23.7904C40.1602 23.7981 40.1479 23.8053 40.1351 23.8109C40.1325 23.8119 40.1299 23.8135 40.1274 23.8145C40.0557 23.8463 39.9046 23.9119 39.8324 23.9411C39.8293 23.9426 39.8257 23.9436 39.8227 23.9452C39.816 23.9477 39.8094 23.9498 39.8027 23.9518C39.796 23.9539 39.7889 23.9554 39.7817 23.9564C39.667 23.9775 39.5518 23.9933 39.436 24.0051C39.4212 24.0067 39.4063 24.0067 39.3915 24.0051C39.3889 24.0051 39.3863 24.0046 39.3838 24.0041C39.3121 23.9964 39.1262 23.9723 39.0545 23.9616C39.0509 23.9611 39.0473 23.9605 39.0437 23.96C39.0366 23.9585 39.0289 23.957 39.0217 23.9549C39.0135 23.9523 39.0058 23.9498 38.9977 23.9467C38.928 23.919 38.7692 23.8535 38.7011 23.8237C38.6991 23.8227 38.6976 23.8222 38.696 23.8212C38.6924 23.8196 38.6888 23.8176 38.6853 23.816C38.6776 23.8119 38.6704 23.8078 38.6632 23.8027C38.6597 23.8002 38.6566 23.7981 38.653 23.7955C38.589 23.7489 38.4635 23.6526 38.401 23.6029C38.399 23.6013 38.3969 23.5998 38.3949 23.5983C38.3806 23.587 38.3677 23.5737 38.356 23.5598C38.2822 23.4717 38.2095 23.3825 38.144 23.2883C38.1378 23.2795 38.1322 23.2708 38.1271 23.2616C38.0149 23.0705 37.9575 22.8635 37.9555 22.6416C37.9693 22.5324 37.9837 22.4233 37.9975 22.3142C38.0548 22.1051 38.1593 21.9237 38.3104 21.7689C38.3232 21.7587 38.336 21.749 38.3488 21.7387C38.3754 21.6977 38.399 21.6552 38.4323 21.6183C38.5183 21.484 38.6325 21.3775 38.7754 21.2991C38.9162 21.2084 39.0683 21.1587 39.2317 21.1505C39.3951 21.113 39.5584 21.1192 39.7223 21.1694C39.7377 21.174 39.753 21.1791 39.7684 21.1848C39.7756 21.1873 39.7822 21.1899 39.7894 21.193C39.8918 21.2345 39.9963 21.276 40.0972 21.3211C40.1197 21.3313 40.1412 21.3426 40.1617 21.3564C40.2564 21.4215 40.3481 21.4917 40.4362 21.566C40.4434 21.5722 40.45 21.5783 40.4567 21.585C40.534 21.6675 40.5996 21.7613 40.6661 21.852C40.6712 21.8586 40.6759 21.8658 40.6794 21.873C40.7993 22.0933 40.872 22.3121 40.8699 22.5663C40.8699 22.6247 40.8515 22.7195 40.8474 22.7487L40.8469 22.7492Z" fill="#FDB269"/>
<path d="M56.8255 48.4528L56.3139 48.4558L54.9814 38.1998C54.0816 31.851 50.611 27.2418 45.3505 25.373C45.4504 24.9308 45.5077 24.4727 45.5052 23.9997C45.4893 21.3018 43.7056 19.0293 41.2603 18.2709C41.5066 19.0451 42.8166 19.8425 42.9308 21.8809C43.1387 25.5964 42.1534 26.755 42.2481 27.2141C42.3004 27.4688 49.723 28.7032 50.3191 40.8598C50.4645 43.8195 50.571 47.9865 48.2471 49.9977C51.5364 51.7548 52.1852 55.1055 49.5043 57.4887L56.8793 57.4447C59.361 57.4298 61.3608 55.4047 61.346 52.9221C61.3311 50.4389 59.3072 48.4379 56.826 48.4528H56.8255Z" fill="#FEECA8"/>
<path d="M56.1764 48.4491L56.1696 48.5926C55.6726 48.7739 55.0291 48.9375 54.2619 49.0829C53.1463 49.2942 51.7817 49.4646 50.251 49.5967C47.19 49.8609 43.4736 49.9714 39.7742 49.9528C36.0751 49.9342 32.3958 49.7866 29.4095 49.5352C27.9162 49.4094 26.5978 49.2578 25.5377 49.0837C24.5433 48.9204 23.7876 48.7391 23.3275 48.5457L23.4907 47.4106C29.0764 48.5076 37.1093 48.5794 43.8318 48.3568C47.2238 48.2444 50.2858 48.057 52.5371 47.8876C53.6628 47.8029 54.5861 47.7227 55.2469 47.6586C55.5772 47.6266 55.8424 47.5985 56.0347 47.5759C56.1044 47.5677 56.1663 47.5601 56.219 47.553L56.1764 48.4491Z" fill="#7FFFB5" stroke="black" stroke-width="0.275304"/>
<path d="M33.2582 24.0723C33.261 24.5586 33.3254 25.0286 33.4339 25.4794C28.1984 27.6289 24.683 32.4484 24.2606 38.3632L23.0109 48.4698L22.4122 48.4735C19.829 48.4889 17.7476 50.5968 17.7631 53.1807C17.7785 55.7651 19.885 57.8479 22.4676 57.8324L56.8798 57.627C59.4629 57.6115 61.5444 55.5037 61.5289 52.9197C61.5134 50.3353 59.407 48.2525 56.8243 48.268L56.6419 48.2691V48.2701L56.4749 48.2711L55.1633 38.1759L55.163 38.1738C54.264 31.8301 50.8137 27.1841 45.5634 25.2546M33.2582 24.0723L33.4417 24.0712L33.2582 24.0723C33.2582 24.0723 33.2582 24.0723 33.2582 24.0723ZM33.2582 24.0723C33.2376 20.6383 36.0037 17.8372 39.4365 17.8166C42.8687 17.796 45.6681 20.5639 45.6886 23.9984L45.6886 23.9985C45.691 24.4304 45.6449 24.8494 45.5634 25.2546M45.5634 25.2546C45.513 25.2361 45.4625 25.2178 45.4119 25.1998L45.3504 25.3728L45.5295 25.4132C45.5414 25.3606 45.5527 25.3077 45.5634 25.2546ZM40.8228 22.9296C40.8329 22.888 40.8389 22.8271 40.843 22.7854C40.8445 22.7701 40.8458 22.7573 40.8469 22.7492L40.8228 22.9296ZM40.8228 22.9296C40.8213 22.9362 40.8192 22.9429 40.8167 22.949L40.8228 22.9296ZM40.6787 22.6416C40.6777 22.6482 40.6767 22.6547 40.6757 22.661L40.0544 23.646L40.0519 23.6472C39.98 23.6791 39.8324 23.7431 39.7636 23.7709L39.7568 23.7737L39.7561 23.774L39.7551 23.7744C39.7551 23.7744 39.7551 23.7744 39.7551 23.7744L39.7527 23.7752L39.7486 23.7759C39.6392 23.796 39.5289 23.8112 39.4174 23.8225L39.4171 23.8226C39.4157 23.8227 39.4142 23.8228 39.4128 23.8227L39.4116 23.8225L39.4034 23.8216C39.3344 23.8142 39.1511 23.7905 39.0817 23.7801L39.0805 23.7799L39.0759 23.7792L39.0729 23.7786C39.0728 23.7786 39.0728 23.7785 39.0727 23.7785C39.0692 23.7774 39.0663 23.7764 39.0635 23.7754C38.998 23.7493 38.8559 23.6906 38.7856 23.6603L38.7838 23.6591L38.7714 23.6538L38.7685 23.6523L38.7626 23.6483L38.7611 23.6472C38.7607 23.6469 38.7604 23.6467 38.76 23.6464C38.6983 23.6014 38.576 23.5075 38.5153 23.4593L38.5153 23.4592L38.5112 23.4561L38.5097 23.4549L38.5081 23.4538L38.5076 23.4534C38.5058 23.4519 38.5022 23.4484 38.4962 23.4414C38.4232 23.3541 38.3551 23.2704 38.2947 23.1835L38.2939 23.1825C38.2906 23.1777 38.2887 23.1746 38.2875 23.1725L38.2876 23.1725L38.2854 23.1687C38.1915 23.0087 38.1429 22.8371 38.1392 22.652L38.1585 22.5014L38.1778 22.3508C38.2265 22.1807 38.3114 22.0332 38.4337 21.9054L38.4425 21.8985L38.4635 21.882L38.4866 21.8635L38.5027 21.8387C38.5137 21.8218 38.5222 21.8082 38.5294 21.7968C38.5455 21.7711 38.5544 21.7569 38.5685 21.7412L38.5787 21.73L38.5868 21.7173C38.6561 21.6092 38.7473 21.5238 38.8637 21.46L38.8639 21.4604L38.8748 21.4534C38.9894 21.3795 39.1106 21.3403 39.2409 21.3338L39.257 21.333L39.2727 21.3294C39.4041 21.2993 39.5348 21.3039 39.6685 21.3449L39.6695 21.3452C39.6813 21.3487 39.6932 21.3527 39.7052 21.3571L39.7066 21.3576C39.711 21.3592 39.714 21.3604 39.717 21.3617L39.717 21.3617L39.7205 21.3631C39.7352 21.3691 39.75 21.375 39.7646 21.3809C39.8529 21.4166 39.9385 21.4512 40.0217 21.4884C40.0377 21.4957 40.0492 21.502 40.0585 21.5082C40.1475 21.5694 40.2339 21.6356 40.3172 21.7058C40.32 21.7082 40.3226 21.7105 40.325 21.7129C40.3822 21.7743 40.432 21.8426 40.4889 21.9205C40.4984 21.9336 40.5082 21.9469 40.5182 21.9606L40.5181 21.9606L40.5182 21.9606C40.5182 21.9607 40.5182 21.9607 40.5183 21.9607C40.6278 22.1622 40.6881 22.3502 40.6864 22.5648V22.5663C40.6864 22.5809 40.6837 22.6076 40.6787 22.6416ZM40.0616 23.6427C40.0615 23.6427 40.0615 23.6428 40.0614 23.6428L40.5203 23.1823L40.5203 23.1823L40.5181 23.1853C40.517 23.1868 40.5153 23.1891 40.5132 23.1921C40.4866 23.2294 40.386 23.3702 40.3276 23.4348L40.3268 23.4357C40.3268 23.4357 40.3265 23.4361 40.3257 23.4368L40.3225 23.44C40.2466 23.5112 40.1607 23.5762 40.0687 23.6384L40.068 23.6388L40.0631 23.6419L40.0616 23.6427ZM40.6449 22.8843C40.6055 22.9888 40.5678 23.0864 40.5229 23.1786L40.6449 22.8843ZM39.7487 23.7764C39.7487 23.7764 39.7487 23.7764 39.7487 23.7764L39.7487 23.7764Z" stroke="black" stroke-width="0.367073"/>
<path d="M14.0731 23.4528C11.7552 26.2278 10.2297 29.5567 9.65026 33.1045C9.07083 36.6523 9.45792 40.2936 10.7725 43.6619" stroke="black" stroke-width="0.4" stroke-linecap="round"/>
<path d="M18.3315 29.6167C17.2356 30.9289 16.5144 32.5031 16.2404 34.1807C15.9664 35.8583 16.1493 37.5801 16.7708 39.1728" stroke="black" stroke-width="0.4" stroke-linecap="round"/>
<path d="M64.2586 23.4528C66.5765 26.2278 68.102 29.5567 68.6814 33.1045C69.2608 36.6523 68.8737 40.2936 67.5591 43.6619" stroke="black" stroke-width="0.4" stroke-linecap="round"/>
<path d="M60.0002 29.6167C61.0961 30.9289 61.8173 32.5031 62.0913 34.1807C62.3653 35.8583 62.1823 37.5801 61.5609 39.1728" stroke="black" stroke-width="0.4" stroke-linecap="round"/>
</svg>
