<svg width="172" height="88" viewBox="0 0 172 88" fill="none" xmlns="http://www.w3.org/2000/svg">
<path d="M0.100838 29.4403L6.02181 75.2269C6.96916 82.5531 14.3864 88.0397 23.0802 87.8441L148.091 85.0349C156.521 84.8452 163.463 79.3646 164.283 72.2519L170.82 15.5448C171.857 6.54825 162.821 -0.958259 152.229 0.0997616L14.7597 13.8294C5.64447 14.7394 -0.898702 21.7084 0.100838 29.4403Z" fill="#F578BA"/>
<path d="M165.905 3.99311L157.909 1.49739C157.909 1.49739 163.747 5.93003 164.385 10.0777C165.905 19.9657 163.835 26.6587 162.906 34.4408C161.2 48.7322 160.408 50.4135 156.817 66.4808C155.276 73.374 152.984 77.0225 147.415 76.868L136.368 77.3428L10.94 82.9526L23.9325 87.445C23.9325 87.445 148.699 84.0847 153.858 83.9509L161.353 77.9611C161.353 77.9611 164.199 67.9433 164.083 63.486L168.849 19.0623C168.849 19.0623 169.487 9.47966 168.849 9.07943C168.211 8.67921 165.905 3.99311 165.905 3.99311Z" fill="#BC6F98"/>
<path d="M14.8627 14.8604L14.8627 14.8604L152.332 1.1308C162.493 0.115801 170.728 7.29544 169.791 15.4262L163.254 72.1332C162.508 78.608 156.115 83.8179 148.068 83.9989L23.0569 86.8082C14.7518 86.995 7.91216 81.7659 7.04942 75.094L1.12846 29.3074C1.12845 29.3074 1.12845 29.3074 1.12845 29.3074C0.223946 22.3104 6.15932 15.7293 14.8627 14.8604Z" stroke="#FFC6C6" stroke-width="2.07234"/>
</svg>
