<svg width="153" height="24" viewBox="0 0 153 24" fill="none" xmlns="http://www.w3.org/2000/svg">
<path d="M11.4565 1.6726C11.6276 1.14614 12.3724 1.14614 12.5435 1.6726L14.5659 7.89695C14.6424 8.13239 14.8618 8.2918 15.1093 8.2918H21.654C22.2076 8.2918 22.4377 9.00015 21.9899 9.32552L16.6951 13.1724C16.4949 13.3179 16.411 13.5758 16.4875 13.8113L18.51 20.0356C18.681 20.5621 18.0785 20.9999 17.6306 20.6745L12.3359 16.8276C12.1356 16.6821 11.8644 16.6821 11.6641 16.8276L6.36938 20.6745C5.92154 20.9999 5.31898 20.5621 5.49004 20.0356L7.51245 13.8113C7.58895 13.5758 7.50515 13.3179 7.30487 13.1724L2.01012 9.32552C1.56229 9.00015 1.79244 8.2918 2.346 8.2918H8.89067C9.13822 8.2918 9.35763 8.13239 9.43413 7.89695L11.4565 1.6726Z" fill="#FEA00A"/>
<path d="M43.4565 1.6726C43.6276 1.14614 44.3724 1.14614 44.5435 1.6726L46.5659 7.89695C46.6424 8.13239 46.8618 8.2918 47.1093 8.2918H53.654C54.2076 8.2918 54.4377 9.00015 53.9899 9.32552L48.6951 13.1724C48.4949 13.3179 48.411 13.5758 48.4875 13.8113L50.51 20.0356C50.681 20.5621 50.0785 20.9999 49.6306 20.6745L44.3359 16.8276C44.1356 16.6821 43.8644 16.6821 43.6641 16.8276L38.3694 20.6745C37.9215 20.9999 37.319 20.5621 37.49 20.0356L39.5125 13.8113C39.589 13.5758 39.5051 13.3179 39.3049 13.1724L34.0101 9.32552C33.5623 9.00015 33.7924 8.2918 34.346 8.2918H40.8907C41.1382 8.2918 41.3576 8.13239 41.4341 7.89695L43.4565 1.6726Z" fill="#FEA00A"/>
<path d="M75.4565 1.6726C75.6276 1.14614 76.3724 1.14614 76.5435 1.6726L78.5659 7.89695C78.6424 8.13239 78.8618 8.2918 79.1093 8.2918H85.654C86.2076 8.2918 86.4377 9.00015 85.9899 9.32552L80.6951 13.1724C80.4949 13.3179 80.411 13.5758 80.4875 13.8113L82.51 20.0356C82.681 20.5621 82.0785 20.9999 81.6306 20.6745L76.3359 16.8276C76.1356 16.6821 75.8644 16.6821 75.6641 16.8276L70.3694 20.6745C69.9215 20.9999 69.319 20.5621 69.49 20.0356L71.5125 13.8113C71.589 13.5758 71.5051 13.3179 71.3049 13.1724L66.0101 9.32552C65.5623 9.00015 65.7924 8.2918 66.346 8.2918H72.8907C73.1382 8.2918 73.3576 8.13239 73.4341 7.89695L75.4565 1.6726Z" fill="#FEA00A"/>
<path d="M107.457 1.6726C107.628 1.14614 108.372 1.14614 108.543 1.6726L110.566 7.89695C110.642 8.13239 110.862 8.2918 111.109 8.2918H117.654C118.208 8.2918 118.438 9.00015 117.99 9.32552L112.695 13.1724C112.495 13.3179 112.411 13.5758 112.488 13.8113L114.51 20.0356C114.681 20.5621 114.078 20.9999 113.631 20.6745L108.336 16.8276C108.136 16.6821 107.864 16.6821 107.664 16.8276L102.369 20.6745C101.922 20.9999 101.319 20.5621 101.49 20.0356L103.512 13.8113C103.589 13.5758 103.505 13.3179 103.305 13.1724L98.0101 9.32552C97.5623 9.00015 97.7924 8.2918 98.346 8.2918H104.891C105.138 8.2918 105.358 8.13239 105.434 7.89695L107.457 1.6726Z" fill="#FEA00A"/>
<path d="M139.457 1.6726C139.628 1.14614 140.372 1.14614 140.543 1.6726L142.566 7.89695C142.642 8.13239 142.862 8.2918 143.109 8.2918H149.654C150.208 8.2918 150.438 9.00015 149.99 9.32552L144.695 13.1724C144.495 13.3179 144.411 13.5758 144.488 13.8113L146.51 20.0356C146.681 20.5621 146.078 20.9999 145.631 20.6745L140.336 16.8276C140.136 16.6821 139.864 16.6821 139.664 16.8276L134.369 20.6745C133.922 20.9999 133.319 20.5621 133.49 20.0356L135.512 13.8113C135.589 13.5758 135.505 13.3179 135.305 13.1724L130.01 9.32552C129.562 9.00015 129.792 8.2918 130.346 8.2918H136.891C137.138 8.2918 137.358 8.13239 137.434 7.89695L139.457 1.6726Z" fill="#FEA00A"/>
</svg>
