<svg width="166" height="25" viewBox="0 0 166 25" fill="none" xmlns="http://www.w3.org/2000/svg">
<path d="M19.386 20.7508C22.5674 20.3655 25.4626 19.4077 27.7633 17.9767C30.4494 16.3144 32.0456 13.199 31.6493 9.53326C31.209 5.39415 26.7176 -0.0219498 16.3037 6.69081e-05C12.0875 6.69081e-05 7.99239 0.836698 5.0752 2.80719C2.21303 4.74465 0.308594 7.66187 0.308594 10.6121C0.308594 15.4227 4.99814 19.4408 12.2306 20.5966L20.1676 25L19.386 20.7508Z" fill="#C22609"/>
<path d="M10.1285 4.20489C9.42396 4.20489 8.84052 4.46908 8.40019 5.00849C7.95987 5.54791 7.73968 6.24143 7.73968 7.08909C7.73968 8.28896 8.03694 9.26869 8.62032 10.0173C9.21478 10.7769 9.97438 11.1512 10.9101 11.1512C11.6697 11.1512 12.3081 10.8979 12.8145 10.3695C13.3209 9.85214 13.5851 9.2027 13.5851 8.43208C13.5851 7.29821 13.2439 6.30747 12.5503 5.45984C11.8568 4.62321 11.0642 4.20489 10.1285 4.20489ZM10.778 3.56641C12.3191 3.56641 13.5851 4.07279 14.5759 5.08556C15.5666 6.09832 16.062 7.3973 16.062 8.9825C16.062 10.953 15.2914 12.7143 13.7613 14.2665C12.231 15.8187 10.3046 16.7874 7.98189 17.1617L7.04613 17.3158C6.9361 17.3268 6.85903 17.3378 6.77095 17.3378C6.56179 17.3378 6.46272 17.2387 6.47372 17.0296C6.48473 16.9195 6.51776 16.8535 6.58379 16.8314C6.64985 16.8094 6.84802 16.7544 7.20027 16.6883C8.31212 16.4682 9.39094 15.9618 10.4477 15.1582C11.5045 14.3546 12.2091 13.5179 12.5503 12.6263L12.7705 12.0538C12.8475 11.8556 12.8916 11.7016 12.8916 11.5805C12.8916 11.3713 12.8145 11.2723 12.6384 11.2833C12.5613 11.2943 12.4623 11.3272 12.3301 11.4043C11.9228 11.6575 11.4055 11.8887 10.811 12.0758C10.2055 12.263 9.71015 12.3621 9.30286 12.3621C8.21303 12.3621 7.29935 11.9878 6.55078 11.2282C5.81323 10.4796 5.44995 9.54393 5.44995 8.44309C5.44995 7.01203 5.95633 5.84513 6.94711 4.93144C7.94886 4.01775 9.22579 3.56641 10.778 3.56641Z" fill="white"/>
<path d="M21.6864 4.20489C20.9818 4.20489 20.3984 4.46908 19.9581 5.00849C19.5177 5.54791 19.2976 6.24143 19.2976 7.08909C19.2976 8.28896 19.5948 9.26869 20.1782 10.0173C20.7727 10.7769 21.5323 11.1512 22.468 11.1512C23.2276 11.1512 23.866 10.8979 24.3724 10.3695C24.8788 9.85214 25.143 9.2027 25.143 8.43208C25.143 7.29821 24.8018 6.30747 24.1082 5.45984C23.4147 4.62321 22.6111 4.20489 21.6864 4.20489ZM22.3248 3.56641C23.866 3.56641 25.132 4.07279 26.1227 5.08556C27.1135 6.09832 27.6088 7.3973 27.6088 8.9825C27.6088 10.953 26.8383 12.7143 25.3081 14.2665C23.778 15.8187 21.8515 16.7874 19.5288 17.1617L18.593 17.3158C18.483 17.3268 18.4059 17.3378 18.3178 17.3378C18.1086 17.3378 18.0096 17.2387 18.0206 17.0296C18.0316 16.9195 18.0646 16.8535 18.1307 16.8314C18.1967 16.8094 18.3949 16.7544 18.7471 16.6883C19.859 16.4682 20.9378 15.9618 21.9946 15.1582C23.0404 14.3546 23.756 13.5179 24.0972 12.6263L24.3174 12.0538C24.3944 11.8556 24.4384 11.7016 24.4384 11.5805C24.4384 11.3713 24.3614 11.2723 24.1853 11.2833C24.1082 11.2943 24.0091 11.3272 23.877 11.4043C23.4697 11.6575 22.9523 11.8887 22.3579 12.0758C21.7634 12.263 21.257 12.3621 20.8497 12.3621C19.7599 12.3621 18.8462 11.9878 18.0976 11.2282C17.3601 10.4796 16.9858 9.54393 16.9858 8.44309C16.9858 7.01203 17.4922 5.84513 18.483 4.93144C19.4957 4.01775 20.7727 3.56641 22.3248 3.56641Z" fill="white"/>
<path d="M61.2285 2.45868C60.8542 2.45868 60.6451 2.6128 60.601 2.91003L60.491 3.61456L60.3148 4.64934L60.1607 5.6511C60.0726 6.03639 60.0176 6.33362 60.0066 6.55375C59.9846 6.79597 60.1497 6.90606 60.4689 6.90606C60.6891 6.90606 60.8652 6.75193 60.9753 6.43271L61.0964 6.11345C61.4046 5.27682 61.6248 4.74841 61.801 4.53926C61.9771 4.3301 62.3184 4.13195 62.8468 3.96682C63.5736 3.74666 64.916 3.62557 66.909 3.62557C67.7566 3.62557 68.1745 3.9338 68.1745 4.53926V14.788L68.1858 15.3274C68.1858 16.0099 67.9768 16.5493 67.5471 16.9567C67.1292 17.353 66.5343 17.5731 65.753 17.6061C65.4559 17.6281 65.2576 17.6502 65.1806 17.7052C65.0924 17.7603 65.0374 17.8704 65.0261 18.0464C65.0155 18.2556 65.1694 18.3547 65.4778 18.3547C65.6097 18.3547 65.8518 18.3437 66.1934 18.3107L74.6039 18.2666C74.7797 18.2777 74.9116 18.2777 74.978 18.2777C75.2864 18.2777 75.4402 18.1896 75.4402 18.0025C75.4402 17.7493 75.2638 17.6171 74.901 17.5951C73.6681 17.5401 72.8092 17.2319 72.3138 16.6925C71.8296 16.153 71.5875 15.2284 71.5875 13.9293V5.23278C71.5875 4.51724 71.7745 4.0659 72.138 3.88977C72.512 3.70262 73.4479 3.61456 74.9561 3.61456C76.0789 3.61456 76.9372 3.76867 77.5208 4.08792C78.1151 4.40716 78.5117 4.92455 78.7206 5.64009C78.8088 5.93731 78.9627 6.08043 79.1942 6.08043C79.4694 6.08043 79.5901 5.95933 79.5901 5.69513C79.5901 5.45295 79.5576 5.1227 79.48 4.71539C79.3925 4.22001 79.3374 3.91178 79.3374 3.77968L79.2605 2.94305C79.2379 2.59079 78.9408 2.41465 78.3903 2.41465C78.3134 2.39263 61.3386 2.45868 61.2285 2.45868Z" fill="#2C292B"/>
<path d="M50.7153 2.71133C50.7153 2.85444 50.7924 2.95352 50.9245 3.00856C51.0676 3.0636 51.3979 3.12965 51.9042 3.18469C52.7519 3.28377 53.3353 3.48192 53.6545 3.79015C53.9738 4.09838 54.1279 4.59375 54.1279 5.29829V14.4902L54.1169 15.514C54.1169 16.1855 53.9958 16.6589 53.7646 16.9451C53.5334 17.2313 53.0601 17.4735 52.3446 17.6826L51.9042 17.9579L51.9262 18.046C51.9813 18.211 52.1244 18.2881 52.3446 18.2881H60.0944C60.7439 18.2881 61.0632 18.178 61.0632 17.9469C61.0632 17.7047 60.8209 17.5946 60.3366 17.5946C59.5991 17.5946 58.9936 17.4405 58.5312 17.1212C58.0689 16.802 57.7827 16.3507 57.6615 15.7562L57.5405 14.6003V4.80291C57.5405 4.14241 57.6506 3.70208 57.8487 3.49293C58.0579 3.27276 58.5202 3.11864 59.2247 3.03057C59.4229 3.00856 59.544 2.97553 59.5991 2.92049C59.6431 2.87645 59.6761 2.77738 59.6761 2.63427C59.6761 2.44713 59.4559 2.44713 59.1257 2.44713C58.5753 2.44713 51.2547 2.41411 51.0786 2.4031C51.0676 2.4031 51.0676 2.4031 51.0566 2.4031C50.8364 2.39209 50.7153 2.50218 50.7153 2.71133Z" fill="#2C292B"/>
<path d="M83.0254 3.99642C81.8806 4.75599 80.9673 5.74674 80.2955 6.95765C79.613 8.16858 79.2715 9.41249 79.2715 10.6895C79.2715 13.0123 80.1741 14.8947 82.002 16.3367C83.8292 17.7788 86.185 18.5054 89.1132 18.5054C92.1296 18.5054 94.6725 17.6027 96.7199 15.8083C97.5018 15.1148 97.8978 14.6084 97.8978 14.3002C97.8978 14.1241 97.799 14.047 97.6119 14.047C97.4793 14.0581 97.3473 14.1241 97.2153 14.2341L96.2464 15.0488C95.597 15.5992 94.7163 16.0616 93.5934 16.4358C92.4706 16.8101 91.4027 16.9973 90.4012 16.9973C88.706 16.9973 87.1315 16.4468 85.6896 15.335C83.7629 13.8489 82.8165 11.8674 82.8165 9.37946C82.8165 7.47504 83.4001 5.92287 84.578 4.73397C85.7559 3.53407 87.2747 2.93961 89.157 2.93961C91.282 2.93961 93.1974 3.65516 94.9258 5.10826C95.355 5.46052 95.7953 5.94489 96.2689 6.53934C96.7418 7.14481 97.017 7.58514 97.094 7.88233C97.1384 8.0695 97.2485 8.15757 97.4024 8.15757C97.6776 8.15757 97.8096 8.01445 97.8096 7.71725C97.8096 7.51908 97.7877 7.28787 97.7327 7.03472L97.4574 3.74322C97.4574 3.23684 97.3035 2.99466 96.9951 2.99466C96.8632 2.99466 96.7749 3.01668 96.7199 3.08273L96.4115 3.446C96.3127 3.56709 96.1694 3.63314 95.9605 3.63314C95.8066 3.63314 95.6189 3.58911 95.4213 3.49003L94.441 3.0497C93.0654 2.43323 91.4472 2.125 89.5868 2.125C87.099 2.125 84.9083 2.75247 83.0254 3.99642Z" fill="#2C292B"/>
<path d="M104.315 15.3783C102.917 13.8702 102.202 11.8997 102.202 9.47782C102.202 7.43028 102.752 5.8341 103.886 4.68923C105.009 3.54437 106.572 2.96092 108.564 2.96092C110.425 2.96092 112.054 3.46731 113.419 4.45806C114.366 5.12956 115.114 6.05427 115.687 7.19914C116.248 8.34402 116.534 9.53287 116.534 10.7438C116.534 12.8354 115.918 14.5087 114.707 15.7526C113.485 16.9965 111.856 17.624 109.83 17.624C107.563 17.646 105.724 16.8864 104.315 15.3783ZM104.91 2.80681C103.424 3.28017 102.202 3.91865 101.233 4.74427C100.396 5.4488 99.736 6.30748 99.2512 7.34226C98.767 8.37705 98.5249 9.41183 98.5249 10.4686C98.5249 12.9125 99.4933 14.8609 101.409 16.325C103.335 17.7892 105.911 18.5157 109.115 18.5157C112.472 18.5157 115.114 17.6791 117.041 15.9948C119.011 14.2775 119.991 12.1859 119.991 9.70903C119.991 7.44129 119.034 5.60292 117.129 4.20486C115.225 2.80681 112.725 2.11328 109.621 2.11328C107.97 2.11328 106.396 2.34446 104.91 2.80681Z" fill="#2C292B"/>
<path d="M130.824 2.44416C130.483 2.44416 130.317 2.55424 130.317 2.77441C130.317 2.95054 130.471 3.04962 130.78 3.07163C133.037 3.19273 134.159 4.43667 134.159 6.80347V11.8012L134.049 14.5423C134.049 15.489 133.884 16.2046 133.554 16.711C133.212 17.2173 132.684 17.5476 131.958 17.7127C131.672 17.7788 131.517 17.8889 131.517 18.0429C131.517 18.2301 131.66 18.3292 131.924 18.3292C132.079 18.3292 138.607 18.3072 138.728 18.3072C139.036 18.3072 139.19 18.1861 139.19 17.9549C139.19 17.7788 139.036 17.6797 138.739 17.6577C137.131 17.5366 136.152 17.0522 135.843 16.1936C135.535 15.3899 135.381 13.7937 135.381 11.3939V6.91356L135.392 6.57226C135.392 6.23102 135.513 6.05489 135.745 6.05489C135.833 6.05489 135.998 6.15397 136.24 6.36314L149.78 18.0319C149.967 18.1971 150.154 18.2741 150.331 18.2852C150.529 18.2962 150.738 18.1861 150.738 17.9659L150.848 6.16498V5.60355C150.848 4.02936 151.487 3.14869 152.775 2.96155C153.094 2.91752 153.247 2.8955 153.247 2.69735C153.247 2.47719 153.039 2.44416 152.72 2.44416H146.103C145.817 2.44416 145.63 2.44416 145.63 2.65332C145.63 2.81844 145.795 2.90651 146.114 2.92853C147.491 3.00558 148.415 3.36886 148.899 4.00734C149.373 4.64583 149.604 5.86775 149.604 7.6731C149.604 9.21427 149.56 10.8325 149.461 12.5278C149.439 13.0011 149.329 13.2324 149.119 13.2324C148.899 13.2324 148.448 12.9461 147.766 12.3516C147.766 12.3516 136.823 2.71937 136.647 2.60928C136.471 2.4992 136.229 2.45517 135.92 2.45517C135.7 2.43315 130.824 2.44416 130.824 2.44416Z" fill="#2C292B"/>
<path d="M154.359 3.41297C153.291 4.26062 152.752 5.32843 152.752 6.6054C152.752 7.70624 153.137 8.57588 153.897 9.23639C154.667 9.89685 156.109 10.5904 158.245 11.339L160.513 12.1205C161.526 12.4618 162.241 12.8361 162.649 13.2214C163.056 13.6067 163.265 14.113 163.265 14.7185C163.265 15.4891 162.88 16.1606 162.087 16.755C161.295 17.3495 160.392 17.6468 159.39 17.6468C158.091 17.6468 156.858 17.1954 155.647 16.3037C154.437 15.401 153.6 14.3002 153.116 12.9792C153.06 12.7921 152.961 12.704 152.818 12.704C152.51 12.704 152.355 12.8912 152.355 13.2544C152.355 13.5407 153.49 17.3605 153.556 17.4266C153.633 17.4926 153.897 17.5587 154.359 17.6358C154.689 17.6908 155.196 17.8118 155.889 17.977C157.387 18.3402 158.455 18.5164 159.148 18.5164C160.821 18.5164 162.296 18.021 163.54 17.0193C164.795 16.0285 165.412 14.8616 165.412 13.5186C165.412 12.3077 164.96 11.2619 164.058 10.4033C163.287 9.68773 161.735 8.96115 159.379 8.21262C157.397 7.59615 156.219 7.1338 155.845 6.86957C155.262 6.44026 154.965 5.93388 154.965 5.33943C154.965 4.70095 155.295 4.15053 155.967 3.67717C156.638 3.20381 157.409 2.97264 158.3 2.97264C159.599 2.97264 160.832 3.35793 161.999 4.15053C163.166 4.93212 163.892 5.85682 164.168 6.93563C164.245 7.22188 164.377 7.37595 164.553 7.37595C164.795 7.37595 164.927 7.21087 164.927 6.88058C164.927 6.82553 164.553 3.11575 164.553 3.11575C164.553 2.86256 164.443 2.73046 164.234 2.73046C164.156 2.73046 164.079 2.74147 164.003 2.77449L163.441 2.99466C163.287 3.0497 163.155 3.07172 163.001 3.07172C162.814 3.07172 162.494 3.00567 162.054 2.86256L161.052 2.54332C160.16 2.26811 159.247 2.125 158.323 2.125C156.759 2.125 155.438 2.55433 154.359 3.41297Z" fill="#2C292B"/>
<path d="M119.264 2.70596C119.264 2.84907 119.341 2.94815 119.473 3.00319C119.616 3.05823 119.947 3.12428 120.453 3.17932C121.301 3.27839 121.884 3.48755 122.192 3.78478C122.511 4.09301 122.677 4.58839 122.677 5.29292V14.4849L122.666 15.5087C122.666 16.1802 122.545 16.6535 122.314 16.9397C122.082 17.226 121.609 17.4791 120.882 17.6773L120.442 17.9525L120.464 18.0406C120.519 18.2057 120.662 18.2938 120.871 18.2938H128.632C129.282 18.2938 129.601 18.1837 129.601 17.9525C129.601 17.7103 129.359 17.6002 128.874 17.6002C128.137 17.6002 127.531 17.4461 127.069 17.1269C126.607 16.8076 126.32 16.3563 126.2 15.7618L126.078 14.606V4.78653C126.078 4.12604 126.188 3.6857 126.387 3.47654C126.596 3.25638 127.058 3.10226 127.763 3.01419C127.961 2.99218 128.082 2.95915 128.137 2.90411C128.181 2.86008 128.214 2.761 128.214 2.6179C128.214 2.43076 127.961 2.43076 127.631 2.43076C127.091 2.43076 119.793 2.39773 119.616 2.38672C119.606 2.38672 119.594 2.38672 119.594 2.38672C119.374 2.38672 119.264 2.4968 119.264 2.70596Z" fill="#2C292B"/>
<path d="M39.2884 15.9977C39.2114 14.7318 39.1783 13.8071 39.1783 12.9815C39.1783 12.1558 39.1673 11.1761 39.5416 10.7468C39.9929 10.2404 41.0057 10.2404 41.7213 10.2404C43.2404 10.2404 43.6917 10.2844 44.8917 10.5266C46.9612 10.9449 48.018 12.0567 48.018 13.8511C48.018 14.7758 47.6987 15.5684 47.0603 16.2289C46.2787 17.0215 44.8366 17.4178 42.723 17.4178C40.5764 17.4288 39.3544 17.1206 39.2884 15.9977ZM39.5856 9.01844C39.3104 8.84235 39.1673 8.52307 39.1673 8.07174V5.18756C39.1673 4.53807 39.2224 3.87757 39.6076 3.62438C39.9599 3.3822 40.5544 3.40421 41.435 3.40421C42.9762 3.40421 44.2201 3.44825 45.1558 4.14177C46.1025 4.8463 46.5759 5.771 46.5759 6.92686C46.5759 8.33597 45.7283 9.12854 44.033 9.29368H41.0497C40.3562 9.29368 39.8718 9.1946 39.5856 9.01844ZM33.0797 2.47951L32.7054 2.46851C32.4192 2.46851 32.2871 2.57859 32.2871 2.80976C32.2871 3.01892 32.3972 3.118 32.6063 3.14001L33.2889 3.21707C33.6081 3.23909 34.819 3.53631 35.3584 4.28488C35.6337 4.67017 35.7107 5.20958 35.7217 5.6389C35.7547 8.35799 35.7877 13.5649 35.7877 15.8876C35.7877 16.6142 35.6006 17.0545 35.4355 17.2527C35.0612 17.693 34.1365 17.7041 33.9604 17.7261C33.6851 17.7701 33.564 17.8691 33.564 18.0453C33.564 18.2545 33.7072 18.3535 34.0154 18.3535C35.3804 18.3535 35.3804 18.3425 44.1871 18.2765C46.4218 18.2765 48.2051 17.8361 49.5262 16.9445C50.8361 16.0638 51.4966 14.8529 51.4966 13.3337C51.4966 12.332 51.1444 11.4954 50.4178 10.8238C49.7023 10.1523 48.7225 9.723 47.4786 9.55785C47.0823 9.51381 46.8841 9.41479 46.9062 9.28267C46.9172 9.1946 47.1043 9.09551 47.4676 8.9744C49.0638 8.446 49.8454 7.4993 49.8454 6.1563C49.8454 4.9784 49.2069 4.04269 47.941 3.33816C46.664 2.63363 44.9467 2.46851 42.8441 2.46851C42.0295 2.44649 33.0797 2.47951 33.0797 2.47951Z" fill="#2C292B"/>
</svg>
