<svg width="145" height="22" viewBox="0 0 145 22" fill="none" xmlns="http://www.w3.org/2000/svg">
<path d="M22.3024 -0.0045166H0.453125V16.7311L5.56678 21.8447H22.3024V-0.0045166Z" fill="#3F98F6"/>
<path d="M144.17 0.218872V3.45686H140.247V14.8521H136.156V3.45686H132.273V0.218872H144.17Z" fill="black"/>
<path d="M125.486 15.0005C123.775 15.0005 122.369 14.5992 121.27 13.7966C120.171 12.9802 119.58 11.8178 119.496 10.3096H123.858C123.9 10.8215 124.053 11.1952 124.318 11.4304C124.582 11.6656 124.923 11.7833 125.34 11.7833C125.716 11.7833 126.022 11.6933 126.259 11.5134C126.509 11.3197 126.634 11.0568 126.634 10.7247C126.634 10.2957 126.433 9.96361 126.029 9.72837C125.625 9.49314 124.971 9.23022 124.067 8.93963C123.107 8.62137 122.328 8.31694 121.729 8.02636C121.145 7.72193 120.63 7.28605 120.185 6.71871C119.754 6.13753 119.538 5.38338 119.538 4.45626C119.538 3.51531 119.774 2.71273 120.247 2.04853C120.721 1.37049 121.375 0.858499 122.209 0.51256C123.044 0.166621 123.991 -0.00634766 125.048 -0.00634766C126.76 -0.00634766 128.123 0.394941 129.139 1.19752C130.169 1.98626 130.718 3.10018 130.788 4.53929H126.342C126.328 4.09649 126.189 3.76439 125.925 3.54299C125.674 3.32158 125.347 3.21088 124.944 3.21088C124.638 3.21088 124.387 3.30083 124.192 3.48072C123.997 3.66061 123.9 3.9166 123.9 4.2487C123.9 4.52545 124.004 4.76761 124.213 4.97517C124.436 5.1689 124.707 5.34187 125.027 5.49408C125.347 5.63246 125.82 5.81235 126.446 6.03375C127.379 6.35201 128.144 6.67027 128.742 6.98854C129.355 7.29296 129.876 7.72885 130.308 8.29619C130.753 8.84969 130.976 9.5554 130.976 10.4133C130.976 11.2851 130.753 12.0669 130.308 12.7588C129.876 13.4507 129.243 13.9973 128.408 14.3986C127.587 14.7998 126.613 15.0005 125.486 15.0005Z" fill="black"/>
<path d="M117.398 0.218872V14.8521H113.307V0.218872H117.398Z" fill="black"/>
<path d="M110.766 14.8521H106.675L101.228 6.67409V14.8521H97.1367V0.218872H101.228L106.675 8.50065V0.218872H110.766V14.8521Z" fill="black"/>
<path d="M94.5987 0.218872V14.8521H90.5078V0.218872H94.5987Z" fill="black"/>
<path d="M80.9267 15.0005C79.5492 15.0005 78.2829 14.6822 77.128 14.0457C75.9731 13.3953 75.0548 12.5028 74.3729 11.3681C73.705 10.2196 73.3711 8.9258 73.3711 7.48669C73.3711 6.04758 73.705 4.76069 74.3729 3.62601C75.0548 2.47749 75.9731 1.58497 77.128 0.948444C78.2829 0.311916 79.5492 -0.00634766 80.9267 -0.00634766C82.3182 -0.00634766 83.5844 0.311916 84.7254 0.948444C85.8803 1.58497 86.7917 2.47749 87.4596 3.62601C88.1275 4.76069 88.4615 6.04758 88.4615 7.48669C88.4615 8.9258 88.1275 10.2196 87.4596 11.3681C86.7917 12.5028 85.8803 13.3953 84.7254 14.0457C83.5705 14.6822 82.3043 15.0005 80.9267 15.0005ZM80.9267 11.2228C81.9703 11.2228 82.7913 10.8838 83.3896 10.2058C84.0018 9.52773 84.308 8.62137 84.308 7.48669C84.308 6.32434 84.0018 5.41106 83.3896 4.74685C82.7913 4.06881 81.9703 3.72979 80.9267 3.72979C79.8692 3.72979 79.0413 4.06881 78.443 4.74685C77.8446 5.41106 77.5455 6.32434 77.5455 7.48669C77.5455 8.63521 77.8446 9.54849 78.443 10.2265C79.0413 10.8907 79.8692 11.2228 80.9267 11.2228Z" fill="black"/>
<path d="M57.3438 7.50792C57.3438 6.06881 57.6429 4.78884 58.2412 3.66799C58.8535 2.53331 59.7162 1.65463 60.8294 1.03194C61.9425 0.395412 63.2227 0.0771484 64.6698 0.0771484C66.5065 0.0771484 68.051 0.568382 69.3033 1.55085C70.5557 2.51948 71.3627 3.84096 71.7245 5.51531H67.3205C67.0561 4.96181 66.6874 4.53976 66.2143 4.24917C65.7551 3.95858 65.2194 3.81329 64.6072 3.81329C63.661 3.81329 62.9026 4.15231 62.3321 4.83035C61.7755 5.49455 61.4973 6.38708 61.4973 7.50792C61.4973 8.6426 61.7755 9.54896 62.3321 10.227C62.9026 10.8912 63.661 11.2233 64.6072 11.2233C65.2194 11.2233 65.7551 11.078 66.2143 10.7874C66.6874 10.4968 67.0561 10.0748 67.3205 9.52128H71.7245C71.3627 11.1956 70.5557 12.524 69.3033 13.5065C68.051 14.4751 66.5065 14.9594 64.6698 14.9594C63.2227 14.9594 61.9425 14.6481 60.8294 14.0254C59.7162 13.3889 58.8535 12.5102 58.2412 11.3894C57.6429 10.2547 57.3438 8.96086 57.3438 7.50792Z" fill="black"/>
<path d="M56.1235 0.218872V3.45686H52.1996V14.8521H48.1087V3.45686H44.2266V0.218872H56.1235Z" fill="black"/>
<path d="M42.501 0.218872V14.8521H38.4102V0.218872H42.501Z" fill="black"/>
<path d="M33.5916 7.3383C34.4543 7.53202 35.1361 7.96099 35.637 8.62519C36.1519 9.27556 36.4093 10.0228 36.4093 10.8669C36.4093 12.1123 35.9779 13.0878 35.1152 13.7935C34.2525 14.4992 33.0419 14.8521 31.4835 14.8521H24.1992V0.218872H31.2539C32.7567 0.218872 33.9325 0.550974 34.7813 1.21518C35.644 1.87938 36.0753 2.81342 36.0753 4.01728C36.0753 4.87521 35.8457 5.59476 35.3866 6.17594C34.9413 6.74328 34.343 7.13073 33.5916 7.3383ZM28.2901 6.03065H30.3564C31.3861 6.03065 31.9009 5.6086 31.9009 4.76451C31.9009 3.89274 31.3861 3.45686 30.3564 3.45686H28.2901V6.03065ZM30.6695 11.5726C31.6992 11.5726 32.214 11.1436 32.214 10.2857C32.214 9.8429 32.0749 9.50387 31.7966 9.26864C31.5322 9.0334 31.1496 8.91578 30.6486 8.91578H28.2901V11.5726H30.6695Z" fill="black"/>
<path d="M144.333 17.7184L142.985 20.2887V21.926H142.564V20.2887L141.203 17.7184H141.679L142.774 19.9035L143.864 17.7184H144.333Z" fill="#606378"/>
<path d="M140.093 18.9509C139.973 18.674 139.788 18.4573 139.539 18.3008C139.295 18.1403 139.006 18.0601 138.673 18.0601C138.36 18.0601 138.079 18.1323 137.83 18.2768C137.581 18.4212 137.384 18.6279 137.24 18.8968C137.095 19.1616 137.023 19.4706 137.023 19.8238C137.023 20.1769 137.095 20.4879 137.24 20.7568C137.384 21.0257 137.581 21.2323 137.83 21.3768C138.079 21.5213 138.36 21.5935 138.673 21.5935C138.966 21.5935 139.228 21.5313 139.461 21.4069C139.698 21.2785 139.887 21.0979 140.027 20.8651C140.171 20.6284 140.254 20.3535 140.274 20.0405H138.504V19.6974H140.719V20.0043C140.699 20.3735 140.599 20.7086 140.418 21.0096C140.238 21.3066 139.995 21.5413 139.69 21.7139C139.389 21.8864 139.05 21.9727 138.673 21.9727C138.283 21.9727 137.93 21.8824 137.613 21.7018C137.296 21.5172 137.045 21.2624 136.861 20.9374C136.68 20.6083 136.59 20.2371 136.59 19.8238C136.59 19.4104 136.68 19.0412 136.861 18.7162C137.045 18.3871 137.296 18.1323 137.613 17.9517C137.93 17.7671 138.283 17.6748 138.673 17.6748C139.122 17.6748 139.515 17.7872 139.852 18.0119C140.189 18.2366 140.434 18.5496 140.587 18.9509H140.093Z" fill="#606378"/>
<path d="M133.87 21.9727C133.481 21.9727 133.127 21.8824 132.81 21.7018C132.493 21.5172 132.243 21.2624 132.058 20.9374C131.877 20.6083 131.787 20.2371 131.787 19.8238C131.787 19.4104 131.877 19.0412 132.058 18.7162C132.243 18.3871 132.493 18.1323 132.81 17.9517C133.127 17.7671 133.481 17.6748 133.87 17.6748C134.263 17.6748 134.618 17.7671 134.935 17.9517C135.252 18.1323 135.501 18.3871 135.682 18.7162C135.862 19.0412 135.953 19.4104 135.953 19.8238C135.953 20.2371 135.862 20.6083 135.682 20.9374C135.501 21.2624 135.252 21.5172 134.935 21.7018C134.618 21.8824 134.263 21.9727 133.87 21.9727ZM133.87 21.6055C134.183 21.6055 134.464 21.5333 134.713 21.3888C134.961 21.2444 135.158 21.0377 135.302 20.7688C135.447 20.4959 135.519 20.1809 135.519 19.8238C135.519 19.4666 135.447 19.1536 135.302 18.8847C135.158 18.6159 134.961 18.4092 134.713 18.2647C134.464 18.1202 134.183 18.048 133.87 18.048C133.557 18.048 133.276 18.1202 133.027 18.2647C132.778 18.4092 132.582 18.6159 132.437 18.8847C132.293 19.1536 132.221 19.4666 132.221 19.8238C132.221 20.1809 132.293 20.4959 132.437 20.7688C132.582 21.0377 132.778 21.2444 133.027 21.3888C133.276 21.5333 133.557 21.6055 133.87 21.6055Z" fill="#606378"/>
<path d="M129.806 21.5829H131.317V21.926H129.385V17.7184H129.806V21.5829Z" fill="#606378"/>
<path d="M126.471 21.9727C126.082 21.9727 125.729 21.8824 125.412 21.7018C125.095 21.5172 124.844 21.2624 124.66 20.9374C124.479 20.6083 124.389 20.2371 124.389 19.8238C124.389 19.4104 124.479 19.0412 124.66 18.7162C124.844 18.3871 125.095 18.1323 125.412 17.9517C125.729 17.7671 126.082 17.6748 126.471 17.6748C126.865 17.6748 127.22 17.7671 127.537 17.9517C127.854 18.1323 128.103 18.3871 128.283 18.7162C128.464 19.0412 128.554 19.4104 128.554 19.8238C128.554 20.2371 128.464 20.6083 128.283 20.9374C128.103 21.2624 127.854 21.5172 127.537 21.7018C127.22 21.8824 126.865 21.9727 126.471 21.9727ZM126.471 21.6055C126.784 21.6055 127.065 21.5333 127.314 21.3888C127.563 21.2444 127.76 21.0377 127.904 20.7688C128.049 20.4959 128.121 20.1809 128.121 19.8238C128.121 19.4666 128.049 19.1536 127.904 18.8847C127.76 18.6159 127.563 18.4092 127.314 18.2647C127.065 18.1202 126.784 18.048 126.471 18.048C126.158 18.048 125.877 18.1202 125.629 18.2647C125.38 18.4092 125.183 18.6159 125.039 18.8847C124.894 19.1536 124.822 19.4666 124.822 19.8238C124.822 20.1809 124.894 20.4959 125.039 20.7688C125.183 21.0377 125.38 21.2444 125.629 21.3888C125.877 21.5333 126.158 21.6055 126.471 21.6055Z" fill="#606378"/>
<path d="M123.567 21.926H123.145L120.816 18.3865V21.926H120.395V17.7184H120.816L123.145 21.2518V17.7184H123.567V21.926Z" fill="#606378"/>
<path d="M119.374 17.7184V21.926H118.953V19.9576H116.671V21.926H116.25V17.7184H116.671V19.6085H118.953V17.7184H119.374Z" fill="#606378"/>
<path d="M111.352 19.8238C111.352 19.4104 111.442 19.0412 111.622 18.7162C111.803 18.3871 112.05 18.1323 112.363 17.9517C112.676 17.7671 113.025 17.6748 113.41 17.6748C113.88 17.6748 114.281 17.7872 114.614 18.0119C114.951 18.2326 115.196 18.5456 115.349 18.9509H114.855C114.735 18.666 114.55 18.4433 114.301 18.2828C114.056 18.1223 113.759 18.042 113.41 18.042C113.101 18.042 112.822 18.1142 112.574 18.2587C112.329 18.4032 112.136 18.6118 111.996 18.8847C111.855 19.1536 111.785 19.4666 111.785 19.8238C111.785 20.1809 111.855 20.4939 111.996 20.7628C112.136 21.0317 112.329 21.2383 112.574 21.3828C112.822 21.5273 113.101 21.5995 113.41 21.5995C113.759 21.5995 114.056 21.5213 114.301 21.3648C114.55 21.2042 114.735 20.9835 114.855 20.7026H115.349C115.196 21.1039 114.951 21.4149 114.614 21.6356C114.277 21.8563 113.876 21.9667 113.41 21.9667C113.025 21.9667 112.676 21.8764 112.363 21.6958C112.05 21.5112 111.803 21.2564 111.622 20.9313C111.442 20.6063 111.352 20.2371 111.352 19.8238Z" fill="#606378"/>
<path d="M108.88 18.0639V19.6349H110.476V19.9841H108.88V21.5792H110.656V21.9284H108.459V17.7147H110.656V18.0639H108.88Z" fill="#606378"/>
<path d="M107.732 17.7184V18.0675H106.564V21.926H106.143V18.0675H104.969V17.7184H107.732Z" fill="#606378"/>
<path d="M102.373 21.9341L101.801 21.3502C101.596 21.575 101.378 21.7415 101.145 21.8498C100.912 21.9542 100.649 22.0063 100.356 22.0063C100.076 22.0063 99.8268 21.9542 99.61 21.8498C99.3933 21.7415 99.2248 21.591 99.1044 21.3984C98.984 21.2058 98.9238 20.983 98.9238 20.7302C98.9238 20.4333 99.0081 20.1744 99.1766 19.9537C99.3452 19.733 99.592 19.5604 99.917 19.436C99.7766 19.2795 99.6743 19.1351 99.61 19.0026C99.5458 18.8662 99.5137 18.7197 99.5137 18.5632C99.5137 18.2943 99.61 18.0776 99.8027 17.9131C99.9953 17.7446 100.252 17.6603 100.573 17.6603C100.874 17.6603 101.119 17.7466 101.308 17.9191C101.496 18.0917 101.584 18.3164 101.572 18.5933H101.151C101.155 18.4127 101.099 18.2703 100.982 18.1659C100.87 18.0616 100.728 18.0094 100.555 18.0094C100.371 18.0094 100.22 18.0616 100.104 18.1659C99.9913 18.2662 99.9351 18.3967 99.9351 18.5572C99.9351 18.6856 99.9692 18.81 100.037 18.9304C100.11 19.0508 100.222 19.1932 100.375 19.3578L101.759 20.7603C101.815 20.6841 101.891 20.5637 101.988 20.3991L102.373 19.7551H102.824L102.367 20.5436C102.259 20.7322 102.15 20.9008 102.042 21.0492L102.921 21.9341H102.373ZM100.356 21.6392C100.593 21.6392 100.804 21.593 100.989 21.5007C101.177 21.4084 101.356 21.2639 101.524 21.0673L100.182 19.7069C99.6241 19.9116 99.3452 20.2487 99.3452 20.7182C99.3452 20.8947 99.3873 21.0533 99.4716 21.1937C99.5599 21.3302 99.6803 21.4385 99.8328 21.5188C99.9853 21.599 100.16 21.6392 100.356 21.6392Z" fill="#606378"/>
<path d="M95.2292 21.9727C94.9523 21.9727 94.7075 21.9246 94.4948 21.8283C94.2861 21.7319 94.1216 21.5975 94.0012 21.4249C93.8808 21.2524 93.8166 21.0598 93.8086 20.8471H94.254C94.2741 21.0517 94.3644 21.2323 94.5249 21.3888C94.6854 21.5413 94.9202 21.6176 95.2292 21.6176C95.5141 21.6176 95.7388 21.5453 95.9034 21.4009C96.0719 21.2524 96.1562 21.0658 96.1562 20.8411C96.1562 20.6605 96.11 20.516 96.0177 20.4077C95.9254 20.2953 95.8111 20.213 95.6746 20.1609C95.5382 20.1047 95.3496 20.0445 95.1088 19.9803C94.8279 19.904 94.6052 19.8298 94.4406 19.7575C94.2761 19.6853 94.1357 19.5729 94.0193 19.4205C93.9029 19.268 93.8447 19.0613 93.8447 18.8004C93.8447 18.5837 93.9009 18.3911 94.0133 18.2226C94.1256 18.05 94.2841 17.9156 94.4888 17.8193C94.6935 17.723 94.9282 17.6748 95.1931 17.6748C95.5823 17.6748 95.8953 17.7711 96.1321 17.9637C96.3729 18.1524 96.5113 18.3971 96.5475 18.6981H96.09C96.0619 18.5256 95.9676 18.3731 95.8071 18.2406C95.6465 18.1042 95.4298 18.036 95.157 18.036C94.9041 18.036 94.6935 18.1042 94.5249 18.2406C94.3564 18.3731 94.2721 18.5557 94.2721 18.7884C94.2721 18.965 94.3182 19.1074 94.4105 19.2158C94.5028 19.3241 94.6172 19.4064 94.7537 19.4626C94.8941 19.5188 95.0827 19.579 95.3195 19.6432C95.5924 19.7194 95.8131 19.7957 95.9816 19.8719C96.1502 19.9442 96.2926 20.0565 96.409 20.209C96.5254 20.3615 96.5836 20.5662 96.5836 20.823C96.5836 21.0196 96.5314 21.2062 96.4271 21.3828C96.3227 21.5594 96.1682 21.7018 95.9636 21.8102C95.7589 21.9185 95.5141 21.9727 95.2292 21.9727Z" fill="#606378"/>
<path d="M93.2499 17.7184L92.058 21.926H91.5885L90.5291 18.3384L89.4456 21.926L88.9881 21.932L87.8203 17.7184H88.2718L89.2349 21.4083L90.3124 17.7184H90.7819L91.8293 21.4083L92.7984 17.7184H93.2499Z" fill="#606378"/>
<path d="M85.478 18.0639V19.6349H87.0732V19.9841H85.478V21.5792H87.2538V21.9284H85.0566V17.7147H87.2538V18.0639H85.478Z" fill="#606378"/>
<path d="M84.0414 21.926H83.62L81.2905 18.3865V21.926H80.8691V17.7184H81.2905L83.62 21.2518V17.7184H84.0414V21.926Z" fill="#606378"/>
<path d="M78.4817 17.7184L77.1333 20.2887V21.926H76.712V20.2887L75.3516 17.7184H75.8271L76.9226 19.9035L78.0122 17.7184H78.4817Z" fill="#606378"/>
<path d="M70.8047 19.8238C70.8047 19.4104 70.895 19.0412 71.0756 18.7162C71.2561 18.3871 71.5029 18.1323 71.816 17.9517C72.129 17.7671 72.4781 17.6748 72.8634 17.6748C73.3329 17.6748 73.7342 17.7872 74.0672 18.0119C74.4043 18.2326 74.6491 18.5456 74.8016 18.9509H74.308C74.1876 18.666 74.003 18.4433 73.7542 18.2828C73.5094 18.1223 73.2125 18.042 72.8634 18.042C72.5544 18.042 72.2754 18.1142 72.0266 18.2587C71.7818 18.4032 71.5892 18.6118 71.4488 18.8847C71.3083 19.1536 71.2381 19.4666 71.2381 19.8238C71.2381 20.1809 71.3083 20.4939 71.4488 20.7628C71.5892 21.0317 71.7818 21.2383 72.0266 21.3828C72.2754 21.5273 72.5544 21.5995 72.8634 21.5995C73.2125 21.5995 73.5094 21.5213 73.7542 21.3648C74.003 21.2042 74.1876 20.9835 74.308 20.7026H74.8016C74.6491 21.1039 74.4043 21.4149 74.0672 21.6356C73.7302 21.8563 73.3289 21.9667 72.8634 21.9667C72.4781 21.9667 72.129 21.8764 71.816 21.6958C71.5029 21.5112 71.2561 21.2564 71.0756 20.9313C70.895 20.6063 70.8047 20.2371 70.8047 19.8238Z" fill="#606378"/>
<path d="M69.9809 21.926H69.5595L67.23 18.3865V21.926H66.8086V17.7184H67.23L69.5595 21.2518V17.7184H69.9809V21.926Z" fill="#606378"/>
<path d="M64.144 18.0639V19.6349H65.7392V19.9841H64.144V21.5792H65.9198V21.9284H63.7227V17.7147H65.9198V18.0639H64.144Z" fill="#606378"/>
<path d="M62.3682 21.926L61.3268 20.1683H60.5503V21.926H60.1289V17.7184H61.393C61.8625 17.7184 62.2177 17.8307 62.4584 18.0555C62.7032 18.2802 62.8256 18.5752 62.8256 18.9403C62.8256 19.2453 62.7374 19.5062 62.5608 19.7229C62.3882 19.9356 62.1314 20.074 61.7903 20.1382L62.8738 21.926H62.3682ZM60.5503 19.8252H61.399C61.7281 19.8252 61.9749 19.7449 62.1394 19.5844C62.308 19.4239 62.3922 19.2092 62.3922 18.9403C62.3922 18.6634 62.312 18.4508 62.1515 18.3023C61.9909 18.1498 61.7381 18.0735 61.393 18.0735H60.5503V19.8252Z" fill="#606378"/>
<path d="M58.7744 21.926L57.733 20.1683H56.9565V21.926H56.5352V17.7184H57.7993C58.2688 17.7184 58.6239 17.8307 58.8647 18.0555C59.1095 18.2802 59.2319 18.5752 59.2319 18.9403C59.2319 19.2453 59.1436 19.5062 58.967 19.7229C58.7945 19.9356 58.5376 20.074 58.1965 20.1382L59.28 21.926H58.7744ZM56.9565 19.8252H57.8053C58.1343 19.8252 58.3811 19.7449 58.5457 19.5844C58.7142 19.4239 58.7985 19.2092 58.7985 18.9403C58.7985 18.6634 58.7182 18.4508 58.5577 18.3023C58.3972 18.1498 58.1444 18.0735 57.7993 18.0735H56.9565V19.8252Z" fill="#606378"/>
<path d="M52.8999 17.7184V20.367C52.8999 20.7843 52.9982 21.0933 53.1948 21.294C53.3955 21.4946 53.6684 21.5949 54.0135 21.5949C54.3586 21.5949 54.6275 21.4966 54.8201 21.3C55.0167 21.0993 55.1151 20.7883 55.1151 20.367V17.7184H55.5364V20.3609C55.5364 20.8947 55.394 21.296 55.109 21.5648C54.8281 21.8337 54.4609 21.9681 54.0075 21.9681C53.554 21.9681 53.1848 21.8337 52.8999 21.5648C52.619 21.296 52.4785 20.8947 52.4785 20.3609V17.7184H52.8999Z" fill="#606378"/>
<path d="M47.5996 19.8238C47.5996 19.4104 47.6899 19.0412 47.8705 18.7162C48.0511 18.3871 48.2979 18.1323 48.6109 17.9517C48.9239 17.7671 49.273 17.6748 49.6583 17.6748C50.1278 17.6748 50.5291 17.7872 50.8622 18.0119C51.1993 18.2326 51.4441 18.5456 51.5965 18.9509H51.1029C50.9826 18.666 50.798 18.4433 50.5492 18.2828C50.3044 18.1223 50.0074 18.042 49.6583 18.042C49.3493 18.042 49.0704 18.1142 48.8216 18.2587C48.5768 18.4032 48.3841 18.6118 48.2437 18.8847C48.1032 19.1536 48.033 19.4666 48.033 19.8238C48.033 20.1809 48.1032 20.4939 48.2437 20.7628C48.3841 21.0317 48.5768 21.2383 48.8216 21.3828C49.0704 21.5273 49.3493 21.5995 49.6583 21.5995C50.0074 21.5995 50.3044 21.5213 50.5492 21.3648C50.798 21.2042 50.9826 20.9835 51.1029 20.7026H51.5965C51.4441 21.1039 51.1993 21.4149 50.8622 21.6356C50.5251 21.8563 50.1238 21.9667 49.6583 21.9667C49.273 21.9667 48.9239 21.8764 48.6109 21.6958C48.2979 21.5112 48.0511 21.2564 47.8705 20.9313C47.6899 20.6063 47.5996 20.2371 47.5996 19.8238Z" fill="#606378"/>
<path d="M44.8777 21.9727C44.4884 21.9727 44.1353 21.8824 43.8182 21.7018C43.5012 21.5172 43.2504 21.2624 43.0658 20.9374C42.8852 20.6083 42.7949 20.2371 42.7949 19.8238C42.7949 19.4104 42.8852 19.0412 43.0658 18.7162C43.2504 18.3871 43.5012 18.1323 43.8182 17.9517C44.1353 17.7671 44.4884 17.6748 44.8777 17.6748C45.2709 17.6748 45.6261 17.7671 45.9431 17.9517C46.2601 18.1323 46.5089 18.3871 46.6895 18.7162C46.8701 19.0412 46.9604 19.4104 46.9604 19.8238C46.9604 20.2371 46.8701 20.6083 46.6895 20.9374C46.5089 21.2624 46.2601 21.5172 45.9431 21.7018C45.6261 21.8824 45.2709 21.9727 44.8777 21.9727ZM44.8777 21.6055C45.1907 21.6055 45.4716 21.5333 45.7204 21.3888C45.9692 21.2444 46.1658 21.0377 46.3103 20.7688C46.4548 20.4959 46.527 20.1809 46.527 19.8238C46.527 19.4666 46.4548 19.1536 46.3103 18.8847C46.1658 18.6159 45.9692 18.4092 45.7204 18.2647C45.4716 18.1202 45.1907 18.048 44.8777 18.048C44.5646 18.048 44.2837 18.1202 44.0349 18.2647C43.7861 18.4092 43.5895 18.6159 43.445 18.8847C43.3006 19.1536 43.2283 19.4666 43.2283 19.8238C43.2283 20.1809 43.3006 20.4959 43.445 20.7688C43.5895 21.0377 43.7861 21.2444 44.0349 21.3888C44.2837 21.5333 44.5646 21.6055 44.8777 21.6055Z" fill="#606378"/>
<path d="M42.2629 17.7184V18.0675H41.0952V21.926H40.6738V18.0675H39.5V17.7184H42.2629Z" fill="#606378"/>
<path d="M39.0325 18.9283C39.0325 19.2895 38.9141 19.5804 38.6774 19.8011C38.4406 20.0218 38.0854 20.1322 37.6119 20.1322H36.7632V21.926H36.3418V17.7184H37.6119C38.0814 17.7184 38.4346 17.8287 38.6713 18.0495C38.9121 18.2702 39.0325 18.5631 39.0325 18.9283ZM37.6119 19.771C38.27 19.771 38.5991 19.4901 38.5991 18.9283C38.5991 18.6474 38.5209 18.4347 38.3643 18.2902C38.2078 18.1458 37.957 18.0735 37.6119 18.0735H36.7632V19.771H37.6119Z" fill="#606378"/>
<path d="M35.6653 17.7184L34.3169 20.2887V21.926H33.8956V20.2887L32.5352 17.7184H33.0107L34.1062 19.9035L35.1958 17.7184H35.6653Z" fill="#606378"/>
<path d="M31.5303 21.926L30.4889 20.1683H29.7124V21.926H29.291V17.7184H30.5551C31.0246 17.7184 31.3798 17.8307 31.6206 18.0555C31.8654 18.2802 31.9877 18.5752 31.9877 18.9403C31.9877 19.2453 31.8995 19.5062 31.7229 19.7229C31.5503 19.9356 31.2935 20.074 30.9524 20.1382L32.0359 21.926H31.5303ZM29.7124 19.8252H30.5611C30.8902 19.8252 31.137 19.7449 31.3015 19.5844C31.4701 19.4239 31.5543 19.2092 31.5543 18.9403C31.5543 18.6634 31.4741 18.4508 31.3136 18.3023C31.153 18.1498 30.9002 18.0735 30.5551 18.0735H29.7124V19.8252Z" fill="#606378"/>
<path d="M24.3945 19.8238C24.3945 19.4104 24.4848 19.0412 24.6654 18.7162C24.846 18.3871 25.0928 18.1323 25.4058 17.9517C25.7188 17.7671 26.0679 17.6748 26.4532 17.6748C26.9227 17.6748 27.324 17.7872 27.6571 18.0119C27.9942 18.2326 28.239 18.5456 28.3915 18.9509H27.8979C27.7775 18.666 27.5929 18.4433 27.3441 18.2828C27.0993 18.1223 26.8023 18.042 26.4532 18.042C26.1442 18.042 25.8653 18.1142 25.6165 18.2587C25.3717 18.4032 25.1791 18.6118 25.0386 18.8847C24.8982 19.1536 24.8279 19.4666 24.8279 19.8238C24.8279 20.1809 24.8982 20.4939 25.0386 20.7628C25.1791 21.0317 25.3717 21.2383 25.6165 21.3828C25.8653 21.5273 26.1442 21.5995 26.4532 21.5995C26.8023 21.5995 27.0993 21.5213 27.3441 21.3648C27.5929 21.2042 27.7775 20.9835 27.8979 20.7026H28.3915C28.239 21.1039 27.9942 21.4149 27.6571 21.6356C27.32 21.8563 26.9187 21.9667 26.4532 21.9667C26.0679 21.9667 25.7188 21.8764 25.4058 21.6958C25.0928 21.5112 24.846 21.2564 24.6654 20.9313C24.4848 20.6063 24.3945 20.2371 24.3945 19.8238Z" fill="#606378"/>
<path d="M17.5335 10.4696C18.1697 9.00801 17.2293 7.87827 15.79 6.90703L16.857 4.98159L15.6852 4.33215L14.6459 6.2076C14.3385 6.03633 14.0193 5.86825 13.7028 5.70071L14.7496 3.81356L13.5789 3.16412L12.5109 5.0885C12.2545 4.9534 12.0024 4.82043 11.7593 4.68586L11.763 4.67894L10.1466 3.78271L9.4525 5.03531C9.4525 5.03531 10.328 5.49805 10.3041 5.50603C10.779 5.76932 10.7806 6.13047 10.6934 6.39323L9.47856 8.58675C9.51047 8.60483 9.55249 8.62983 9.5977 8.66334L9.47377 8.59473L7.77013 11.6675C7.66641 11.8052 7.44674 11.9951 7.11484 11.8121C7.12228 11.8334 6.26275 11.3388 6.26275 11.3388L5.25428 12.61L6.77974 13.4546C7.06271 13.6131 7.33929 13.7727 7.61269 13.9259L6.53401 15.8737L7.70417 16.5226L8.77221 14.5961C9.08092 14.7753 9.39156 14.9512 9.70408 15.1237L8.63977 17.0412L9.81206 17.6911L10.8897 15.7476C12.9226 16.7263 14.5767 16.9944 15.774 15.2386C16.7378 13.8259 16.4059 12.7727 15.4363 11.8839C16.3075 11.9148 17.0697 11.5409 17.533 10.4702L17.5335 10.4696ZM13.5869 13.7248C12.78 15.1806 10.3801 13.6339 9.58547 13.1945L11.0157 10.6143C11.8098 11.0542 14.4273 12.2068 13.5858 13.7248H13.5869ZM15.0592 9.78244C14.3246 11.1063 12.3322 9.79999 11.6705 9.43299L12.9678 7.0932C13.6289 7.45967 15.824 8.40165 15.0586 9.78297L15.0592 9.78244Z" fill="white"/>
</svg>
