<svg width="222" height="56" viewBox="0 0 222 56" fill="none" xmlns="http://www.w3.org/2000/svg">
<g clip-path="url(#clip0_5943_11255)">
<mask id="mask0_5943_11255" style="mask-type:luminance" maskUnits="userSpaceOnUse" x="0" y="14" width="222" height="41">
<path d="M221.628 14H0.3125V54.4286H221.628V14Z" fill="white"/>
</mask>
<g mask="url(#mask0_5943_11255)">
<path d="M111.228 46.3125C109.928 46.3125 108.922 47.3739 108.922 48.6305C108.922 49.8872 109.92 50.936 111.21 50.936C112.51 50.936 113.524 49.8746 113.524 48.6179C113.524 47.3527 112.518 46.3125 111.228 46.3125ZM111.21 50.3161C110.268 50.3161 109.542 49.556 109.542 48.6305C109.542 47.7092 110.276 46.9323 111.228 46.9323C112.17 46.9323 112.905 47.6924 112.905 48.6179C112.905 49.5434 112.17 50.3161 111.21 50.3161ZM112.183 48.2315C112.183 47.7602 111.86 47.4885 111.295 47.4885H110.344V49.5943H110.96V49.0254H111.274L111.558 49.5943H112.259L111.826 48.9108C112.055 48.7792 112.183 48.5499 112.183 48.2315ZM110.96 48.5584V47.9598H111.295C111.486 47.9598 111.593 48.0659 111.593 48.257C111.593 48.448 111.486 48.5584 111.295 48.5584H110.96Z" fill="black"/>
<path fill-rule="evenodd" clip-rule="evenodd" d="M24.9754 44.6183L20.1016 47.0289V28.9213L24.9754 26.5107V44.6183ZM31.5926 41.3458L26.7182 43.7564V25.648L31.5888 23.2394H31.5926V41.3458ZM33.3354 40.4838V22.3754L38.2093 19.9648V38.0732L33.3354 40.4838Z" fill="black"/>
<path fill-rule="evenodd" clip-rule="evenodd" d="M18.3981 42.1441V47.0179L0.3125 38.0732V33.1987L18.3981 42.1441ZM18.3981 35.5268V40.4006L0.3125 31.4559V26.5821L18.3981 35.5268ZM18.3981 28.9095V33.784L0.3125 24.8387V19.9648L18.3981 28.9095Z" fill="#FF9500"/>
<path d="M49.7734 14.2422V42.1897H64.0856C70.7834 42.1897 75.0897 39.1594 75.0897 34.3753C75.0897 30.8273 72.8965 28.0367 69.468 27.3189C72.3785 26.4816 74.2119 24.1294 74.2119 21.2992C74.2119 16.9932 70.0261 14.2422 63.4883 14.2422H49.7734ZM58.0267 20.4619H63.0499C64.6841 20.4619 65.7207 21.3389 65.7207 22.7744C65.7207 24.249 64.6841 25.2058 63.0499 25.2058H58.0267V20.4619ZM58.0267 30.8669H63.0499C65.1622 30.8669 66.4784 31.8238 66.4784 33.3392C66.4784 34.9736 65.1622 36.0103 63.0499 36.0103H58.0267V30.8669Z" fill="#FF9500"/>
<path d="M88.3628 14.2422H80.0703V42.1891H88.3628V14.2422Z" fill="#FF9500"/>
<path d="M114.879 20.8608V14.2422H93.3906V20.8608H99.9488V42.1897H108.281V20.8608H114.879Z" fill="#FF9500"/>
<path d="M132.835 14.0039C124.184 14.0039 117.805 20.0242 117.805 28.1569C117.805 36.4092 124.064 42.549 132.556 42.549C136.782 42.549 141.366 40.436 144.396 37.1666L139.612 32.0642C137.698 34.0175 135.107 35.2933 132.955 35.2933C129.167 35.2933 126.297 32.1837 126.297 28.0771C126.297 23.9711 129.167 20.9012 132.955 20.9012C135.267 20.9012 137.859 22.3764 139.612 24.609L144.396 18.9479C141.565 15.9176 137.061 14.0039 132.835 14.0039Z" fill="#FF9500"/>
<path d="M161.713 14.0039C152.943 14.0039 146.484 19.9839 146.484 28.1966C146.484 36.4495 152.943 42.549 161.713 42.549C170.484 42.549 176.943 36.4092 176.943 28.1966C176.943 20.0242 170.484 14.0039 161.713 14.0039ZM161.833 20.9408C165.501 20.9408 168.451 24.0107 168.451 28.2368C168.451 32.4624 165.501 35.6122 161.833 35.6122C158.166 35.6122 154.976 32.4624 154.976 28.2368C154.976 24.0107 158.125 20.9408 161.833 20.9408Z" fill="#FF9500"/>
<path d="M189.925 14.2422H181.633V42.1891H189.925V14.2422Z" fill="#FF9500"/>
<path d="M221.465 42.1897V14.2422H213.89V29.8704L202.05 14.2422H194.953V42.1897H202.567V26.6414L214.408 42.1897H221.465Z" fill="#FF9500"/>
<path d="M57.7046 54.0618V47.0977H55.2706L53.7505 50.734L52.2305 47.0977H49.7969V54.0618H51.8033V50.2468L52.9957 53.3862H54.5053L55.6982 50.2468V54.0618H57.7046Z" fill="black"/>
<path d="M63.8341 53.0783L64.1825 54.0618H66.6357L63.8049 47.0977H61.4405L58.5 54.0618H60.8645L61.2216 53.0783H63.8341ZM63.2685 51.4291H61.8181L62.5533 49.3926L63.2685 51.4291Z" fill="black"/>
<path d="M71.7227 50.3955V52.0148C71.3851 52.1539 71.0475 52.2428 70.8091 52.2428C69.9046 52.2428 69.2395 51.5478 69.2395 50.5838C69.2395 49.64 69.8951 48.9449 70.7895 48.9449C71.3655 48.9449 72.0411 49.2327 72.5075 49.6803L73.8091 48.1005C73.0643 47.4444 71.8819 47.0273 70.7991 47.0273C68.5238 47.0273 66.875 48.5279 66.875 50.5838C66.875 52.6508 68.4646 54.1604 70.6499 54.1604C71.6435 54.1604 72.9251 53.783 73.7003 53.2666V50.3955H71.7227Z" fill="black"/>
<path d="M79.6947 53.0783L80.0419 54.0618H82.496L79.6647 47.0977H77.3002L74.3594 54.0618H76.7238L77.0818 53.0783H79.6947ZM79.1279 51.4291H77.6774L78.4131 49.3926L79.1279 51.4291Z" fill="black"/>
<path d="M89.3103 48.5384V47.0977H83.111V48.8665H86.2407L82.9922 52.6217V54.0618H89.3799V52.2937H86.0614L89.3103 48.5384Z" fill="black"/>
<path d="M92.7732 47.0977H90.4688V54.0618H92.7732V47.0977Z" fill="black"/>
<path d="M100.93 54.0618V47.0977H98.8438V50.6743L96.0913 47.0977H94.1641V54.0618H96.2601V50.5054L99.003 54.0618H100.93Z" fill="black"/>
<path d="M108.204 48.8463V47.0977H102.312V54.0618H108.293V52.3138H104.617V51.4492H107.876V49.7005H104.617V48.8463H108.204Z" fill="black"/>
</g>
</g>
<defs>
<clipPath id="clip0_5943_11255">
<rect width="221.2" height="56" fill="white" transform="translate(0.429688)"/>
</clipPath>
</defs>
</svg>
