<svg width="132" height="30" viewBox="0 0 132 30" fill="none" xmlns="http://www.w3.org/2000/svg">
<path d="M19.3087 21.7658L13.8633 24.0746V23.8437C12.8125 24.0746 11.6183 24.2593 10.5197 24.3054C5.36097 24.3054 1.30085 21.6273 1.20532 18.5336V17.3793C2.87713 19.7342 6.36406 21.3503 10.5197 21.3041C11.9049 21.3503 13.3857 21.1656 14.5798 20.8424L15.0575 19.688C13.6245 20.1036 12.0482 20.3806 10.5197 20.3806C5.36097 20.3806 1.30085 17.7948 1.20532 14.6088V13.6853C2.87713 15.9017 6.36406 17.4716 10.5197 17.3793C12.3826 17.4716 14.1977 17.1022 15.774 16.4558L16.0128 15.3014C14.4843 16.0402 12.5736 16.502 10.5675 16.4558C5.40874 16.502 1.34862 13.9162 1.25309 10.684V9.76051C2.9249 12.0231 6.41182 13.593 10.5675 13.6853C12.908 13.6392 15.153 12.9927 17.0159 12.0692L17.2547 10.684C15.5829 11.8845 13.1468 12.6695 10.5675 12.7618C5.40874 12.6695 1.34862 10.0376 1.25309 6.75918C1.25309 3.6655 5.40874 1.03356 10.5675 1.03356C13.6245 1.03356 16.4905 2.09557 18.1623 3.80402L18.3533 4.08107H19.5475L19.3564 3.80402C17.6846 1.63383 14.2932 0.15625 10.5197 0.15625C4.78778 0.15625 0.25 3.15758 0.25 6.80535V7.03623V18.7645C0.441064 22.3199 4.88331 25.2289 10.4719 25.2289C14.1499 25.2289 17.4936 23.8437 19.3087 21.7658Z" fill="#263238"/>
<path d="M17.0627 29.8431L18.9733 21.9473L13.4324 24.256L16.8238 10.5422H10.3276L11.9995 3.80078H32.6822L31.0104 10.5422H24.2753L22.8424 14.2823L30.2939 11.281L17.0627 29.8431ZM20.454 20.3312L19.4987 24.9948L27.4279 13.405L20.9317 16.1755L23.7977 9.66492H30.2939L31.488 4.77044H12.7159L11.5218 9.66492H18.018L14.8654 22.6861L20.4063 20.3774L20.454 20.3312Z" fill="#FAC02F"/>
<path d="M46.4398 8.37705C46.4398 9.11584 46.201 9.7161 45.7233 10.1317C45.2456 10.5472 44.5769 10.7781 43.7171 10.7781C42.8573 10.7781 42.1408 10.5011 41.6632 9.99315C41.1378 9.48523 40.8989 8.74644 40.8989 7.9153V6.53008C40.8989 5.69894 41.1855 5.00632 41.6632 4.45223C42.1886 3.94431 42.8573 3.66727 43.7171 3.66727C44.5769 3.66727 45.2934 3.89814 45.7711 4.26753C46.2965 4.6831 46.5353 5.28337 46.4876 6.02216H45.1023C45.1023 5.56041 45.0068 5.23719 44.768 5.00632C44.5291 4.77545 44.1948 4.6831 43.7171 4.6831C43.2395 4.6831 42.9529 4.8678 42.714 5.19102C42.4752 5.51424 42.3319 5.92981 42.3319 6.4839V7.86913C42.3319 8.37705 42.4752 8.83879 42.714 9.16201C42.9529 9.48523 43.335 9.66993 43.7649 9.66993C44.1948 9.66993 44.5291 9.57758 44.7202 9.34671C44.9113 9.11584 45.0546 8.79262 45.0546 8.33087H46.4398V8.37705ZM54.369 7.82296C54.369 8.65409 54.0824 9.39288 53.5569 9.94697C53.0315 10.5011 52.2673 10.7781 51.4075 10.7781C50.5477 10.7781 49.8312 10.5011 49.258 9.94697C48.7326 9.39288 48.446 8.70027 48.446 7.82296V6.57625C48.446 5.74511 48.7326 5.0525 49.258 4.45223C49.7834 3.89814 50.5477 3.62109 51.4075 3.62109C52.2673 3.62109 53.0315 3.89814 53.5569 4.45223C54.1301 5.00632 54.369 5.69894 54.369 6.57625V7.82296ZM52.936 6.57625C52.936 6.02216 52.7927 5.60659 52.5061 5.23719C52.2195 4.91397 51.8374 4.72928 51.3597 4.72928C50.882 4.72928 50.4999 4.91397 50.2133 5.23719C49.9745 5.56041 49.7834 6.02216 49.7834 6.57625V7.82296C49.7834 8.37705 49.9267 8.83879 50.2133 9.16201C50.4521 9.48523 50.882 9.66993 51.3597 9.66993C51.8374 9.66993 52.2195 9.48523 52.5061 9.16201C52.7927 8.83879 52.936 8.37705 52.936 7.82296V6.57625ZM58.0947 10.6858H56.6617V3.75962H58.0947V10.6858ZM66.406 10.6858H64.973L62.1071 6.02216V10.6858H60.6741V3.75962H62.1071L64.973 8.42322V3.75962H66.406V10.6858ZM73.6665 4.82163H71.6125V10.6858H70.1795V4.82163H68.1734V3.75962H73.6665V4.82163ZM79.6372 7.63826H76.9623V9.62375H80.1149V10.6858H75.5293V3.75962H80.1149V4.82163H76.9623V6.57625H79.6372V7.63826ZM83.6496 9.62375H86.8499V10.6858H82.1688V3.75962H83.6018V9.62375H83.6496ZM93.0117 7.63826H90.3368V9.62375H93.4894V10.6858H88.9038V3.75962H93.4894V4.82163H90.3368V6.57625H93.0117V7.63826ZM101.084 9.76228C100.845 10.0393 100.559 10.2702 100.081 10.5011C99.6512 10.7319 99.078 10.8243 98.3615 10.8243C97.5017 10.8243 96.7852 10.5472 96.2598 10.0393C95.7344 9.53141 95.4478 8.83879 95.4478 8.00765V6.53008C95.4478 5.69894 95.7344 5.00632 96.2598 4.49841C96.7852 3.99049 97.5017 3.71344 98.3138 3.71344C99.1736 3.71344 99.89 3.94431 100.32 4.31371C100.75 4.6831 101.036 5.23719 100.989 5.92981H99.6512C99.6512 5.56041 99.5557 5.28337 99.3168 5.0525C99.078 4.82163 98.7914 4.72928 98.3615 4.72928C97.9316 4.72928 97.5973 4.91397 97.3107 5.23719C97.0718 5.56041 96.9285 5.97598 96.9285 6.4839V7.96148C96.9285 8.4694 97.0718 8.93114 97.3584 9.25436C97.645 9.57758 98.0272 9.76228 98.4571 9.76228C98.7914 9.76228 99.078 9.76228 99.2691 9.66993C99.4601 9.62375 99.6034 9.53141 99.7467 9.43906V8.1H98.3615V7.13034H101.18V9.85463L101.084 9.76228ZM104.81 7.9153V10.6858H103.377V3.71344H105.861C106.673 3.71344 107.342 3.89814 107.771 4.26753C108.249 4.63693 108.488 5.14485 108.488 5.79129C108.488 6.16068 108.392 6.43773 108.201 6.71477C108.01 6.94564 107.724 7.17652 107.342 7.36121C107.771 7.49974 108.058 7.68443 108.249 7.96148C108.44 8.23852 108.536 8.60792 108.536 9.02349V9.53141C108.536 9.53141 108.536 9.94697 108.631 10.1317C108.631 10.3625 108.775 10.5011 108.918 10.5934V10.6858H107.437C107.294 10.5934 107.198 10.4087 107.15 10.1778C107.15 9.94697 107.103 9.7161 107.103 9.48523V8.97731C107.103 8.65409 107.007 8.37705 106.816 8.19235C106.625 8.00765 106.338 7.9153 106.004 7.9153H104.81ZM104.81 6.8533H105.861C106.243 6.8533 106.577 6.76095 106.768 6.62242C106.959 6.43773 107.055 6.20686 107.055 5.88363C107.055 5.56041 106.959 5.32954 106.768 5.14485C106.577 4.96015 106.291 4.8678 105.909 4.8678H104.858V6.89947L104.81 6.8533ZM114.602 9.20819H112.261L111.784 10.6858H110.255L112.691 3.75962H114.172L116.56 10.6858H115.032L114.554 9.16201L114.602 9.20819ZM112.644 8.1H114.268L113.503 5.65276L112.691 8.1H112.644ZM119.809 8.14618V10.6396H118.376V3.75962H121.146C121.958 3.75962 122.627 3.99049 123.104 4.35988C123.582 4.77545 123.821 5.32954 123.821 5.97598C123.821 6.62242 123.582 7.17652 123.104 7.59208C122.627 8.00765 122.006 8.19235 121.146 8.19235H119.856L119.809 8.14618ZM119.809 7.08417H121.098C121.48 7.08417 121.815 6.99182 122.006 6.76095C122.197 6.53007 122.292 6.25303 122.292 5.97598C122.292 5.65276 122.197 5.37572 122.006 5.14485C121.815 4.91397 121.48 4.82163 121.098 4.82163H119.809V7.08417ZM131.654 10.6396H130.222V7.77678H127.308V10.6396H125.875V3.71344H127.308V6.71477H130.222V3.71344H131.654V10.6396Z" fill="#263238"/>
<path d="M43.4776 21.9958H42.5701V17.4246H40.946V16.6858H45.1017V17.4246H43.4776V21.9958ZM49.4962 21.9958H48.5886V19.5024C48.5886 19.1792 48.5409 18.9483 48.3976 18.8098C48.2543 18.6713 48.0632 18.5789 47.7766 18.5789C47.3945 18.5789 47.1556 18.6713 46.9646 18.9022C46.7735 19.133 46.7257 19.4563 46.678 19.9642V21.9497H45.8182V16.3164H46.678V17.7478C46.678 17.9787 46.678 18.2096 46.678 18.4866H46.7257C46.7257 18.4866 47.0123 18.1634 47.2512 18.0249C47.49 17.9325 47.7288 17.8402 48.0154 17.8402C49.0185 17.8402 49.5439 18.3481 49.5439 19.3177V21.9497L49.4962 21.9958ZM52.5532 22.042C51.8845 22.042 51.4068 21.8573 51.0247 21.4879C50.6426 21.1185 50.4993 20.6106 50.4993 19.9642C50.4993 19.3177 50.6903 18.8098 51.0247 18.4404C51.3591 18.071 51.8367 17.8863 52.4099 17.8863C52.9353 17.8863 53.413 18.071 53.6996 18.3943C54.034 18.7175 54.1773 19.133 54.1773 19.7333V20.195H51.4068C51.4068 20.5644 51.5501 20.8877 51.7412 21.0724C51.9322 21.3032 52.2666 21.3956 52.601 21.3956C52.8398 21.3956 53.0786 21.3956 53.2697 21.3494C53.5085 21.3494 53.6996 21.2109 53.9384 21.1185V21.8111C53.9384 21.8111 53.5085 21.9958 53.2697 22.042C53.0786 22.042 52.792 22.0882 52.5054 22.0882L52.5532 22.042ZM52.4099 18.5328C52.1233 18.5328 51.8845 18.6251 51.7412 18.7636C51.5979 18.9022 51.5024 19.1792 51.4546 19.5024H53.3175C53.3175 19.1792 53.2219 18.9022 53.0786 18.7636C52.9353 18.5789 52.6965 18.5328 52.4099 18.5328ZM59.2405 18.5789H58.2374V21.9497H57.3298V18.5789H56.6611V18.1634L57.3298 17.9325V17.7016C57.3298 17.2399 57.4253 16.8705 57.6642 16.6396C57.903 16.4088 58.2374 16.3164 58.715 16.3164C59.0016 16.3164 59.336 16.3164 59.6226 16.4549L59.3838 17.1014C59.3838 17.1014 58.9539 17.009 58.7628 17.009C58.5717 17.009 58.4284 17.0552 58.3329 17.1937C58.2374 17.3322 58.1896 17.4708 58.1896 17.7016V17.9325H59.1927V18.5789H59.2405ZM62.8707 21.9497L62.7274 21.4418C62.7274 21.4418 62.4408 21.765 62.202 21.9035C61.9631 21.9958 61.7243 22.0882 61.4377 22.0882C60.9123 22.0882 60.5779 21.9497 60.2913 21.7188C60.0525 21.4879 59.9092 21.1185 59.9092 20.6106V17.9787H60.8167V20.4721C60.8167 20.7953 60.8645 20.98 61.0078 21.1647C61.1511 21.3032 61.3422 21.3956 61.6288 21.3956C62.0109 21.3956 62.2497 21.3032 62.4408 21.0724C62.6319 20.8415 62.6796 20.5183 62.7274 20.0104V17.9787H63.6349V21.9958H62.9184L62.8707 21.9497ZM66.3576 21.3032C66.3576 21.3032 66.7875 21.3032 67.0263 21.2109V21.8573C67.0263 21.8573 66.7875 21.9497 66.6442 21.9497C66.5009 21.9497 66.3576 21.9497 66.1665 21.9497C65.3545 21.9497 64.9246 21.5341 64.9246 20.703V18.5328H64.3514V18.1634L64.9724 17.8402L65.259 17.009H65.7844V17.8863H66.9786V18.5328H65.7844V20.703C65.7844 20.9338 65.7844 21.0724 65.9277 21.1647C65.9755 21.2571 66.1665 21.3032 66.3098 21.3032H66.3576ZM70.7521 21.9497L70.6088 21.4418C70.6088 21.4418 70.3222 21.765 70.0834 21.9035C69.8445 21.9958 69.6057 22.0882 69.3191 22.0882C68.7937 22.0882 68.4593 21.9497 68.1727 21.7188C67.9339 21.4879 67.7906 21.1185 67.7906 20.6106V17.9787H68.6981V20.4721C68.6981 20.7953 68.7459 20.98 68.8892 21.1647C69.0325 21.3032 69.2236 21.3956 69.5102 21.3956C69.8923 21.3956 70.1311 21.3032 70.3222 21.0724C70.5133 20.8415 70.561 20.5183 70.6088 20.0104V17.9787H71.5163V21.9958H70.7999L70.7521 21.9497ZM74.8122 17.8402C74.8122 17.8402 75.1466 17.8402 75.2421 17.8402L75.1466 18.6251C75.1466 18.6251 74.9077 18.6251 74.7644 18.6251C74.4301 18.6251 74.1435 18.7175 73.9046 18.9483C73.6658 19.1792 73.5703 19.4563 73.5703 19.8257V21.9035H72.7105V17.8863H73.427L73.5225 18.5789C73.6658 18.3481 73.8569 18.1634 74.0479 18.0249C74.239 17.8863 74.4778 17.794 74.7644 17.794L74.8122 17.8402ZM77.6782 21.9958C77.0094 21.9958 76.5318 21.8111 76.1497 21.4418C75.7675 21.0724 75.6242 20.5644 75.6242 19.918C75.6242 19.2716 75.8153 18.7636 76.1497 18.3943C76.484 18.0249 76.9617 17.8402 77.5349 17.8402C78.0603 17.8402 78.538 18.0249 78.8246 18.3481C79.1589 18.6713 79.3022 19.0869 79.3022 19.6871V20.1489H76.5318C76.5318 20.5183 76.6751 20.8415 76.8661 21.0262C77.0572 21.2571 77.3916 21.3494 77.7259 21.3494C77.9648 21.3494 78.2036 21.3494 78.3947 21.3032C78.6335 21.3032 78.8246 21.1647 79.0634 21.0724V21.765C79.0634 21.765 78.6335 21.9497 78.3947 21.9958C78.1558 21.9958 77.917 22.042 77.6304 22.042L77.6782 21.9958ZM77.5349 18.4866C77.2483 18.4866 77.0094 18.5789 76.8661 18.7175C76.6751 18.9022 76.6273 19.133 76.5795 19.4563H78.4424C78.4424 19.133 78.3469 18.856 78.2036 18.7175C78.0125 18.5328 77.8215 18.4866 77.5349 18.4866ZM85.9895 19.918C85.9895 20.5644 85.7984 21.0724 85.464 21.4418C85.1297 21.8111 84.652 21.9958 84.0311 21.9958C83.6489 21.9958 83.3146 21.9035 82.9802 21.7188C82.6458 21.5341 82.4548 21.3032 82.3115 20.98C82.1682 20.6568 82.0726 20.2874 82.0726 19.8718C82.0726 19.2254 82.2637 18.7175 82.5981 18.3481C82.9324 17.9787 83.4101 17.794 84.0788 17.794C84.652 17.794 85.1297 17.9787 85.5118 18.3481C85.8462 18.7175 86.0372 19.2254 86.0372 19.8718L85.9895 19.918ZM82.9802 19.918C82.9802 20.8415 83.3146 21.3032 84.0311 21.3032C84.7476 21.3032 85.0819 20.8415 85.0819 19.918C85.0819 18.9945 84.7476 18.5328 84.0311 18.5328C83.6489 18.5328 83.4101 18.6713 83.219 18.9022C83.028 19.133 82.9802 19.4563 82.9802 19.918ZM89.0943 18.5789H88.0912V21.9497H87.1836V18.5789H86.5149V18.1634L87.1836 17.9325V17.7016C87.1836 17.2399 87.2792 16.8705 87.518 16.6396C87.7568 16.4088 88.0912 16.3164 88.5688 16.3164C88.8554 16.3164 89.1898 16.3164 89.4764 16.4549L89.2376 17.1014C89.2376 17.1014 88.8077 17.009 88.6166 17.009C88.4255 17.009 88.2822 17.0552 88.1867 17.1937C88.0912 17.2861 88.0434 17.4708 88.0434 17.7016V17.9325H89.0465V18.5789H89.0943ZM95.3039 21.9497H94.3963V19.4563C94.3963 19.133 94.3485 18.9483 94.2052 18.7636C94.1097 18.6251 93.9186 18.5328 93.632 18.5328C93.2977 18.5328 93.0588 18.6251 92.8678 18.856C92.7245 19.0869 92.629 19.4101 92.629 19.918V21.9035H91.7692V17.8863H92.4857L92.629 18.3943C92.629 18.3943 92.9156 18.071 93.1544 17.9325C93.3932 17.8402 93.632 17.794 93.8709 17.794C94.4918 17.794 94.9217 18.0249 95.1606 18.4404H95.2083C95.2083 18.4404 95.4949 18.071 95.7338 17.9787C95.9726 17.8863 96.2114 17.794 96.498 17.794C97.0234 17.794 97.3578 17.9325 97.5966 18.1634C97.8355 18.3943 97.931 18.7636 97.931 19.2716V21.9035H97.0712V19.4101C97.0712 19.0869 97.0234 18.9022 96.8801 18.7175C96.7368 18.5789 96.5935 18.4866 96.3069 18.4866C95.9726 18.4866 95.7338 18.5789 95.5427 18.8098C95.3994 19.0407 95.3039 19.3177 95.3039 19.7795V21.9035H95.2561L95.3039 21.9497ZM102.851 19.918C102.851 20.5644 102.66 21.0724 102.325 21.4418C101.991 21.8111 101.513 21.9958 100.892 21.9958C100.51 21.9958 100.176 21.9035 99.8416 21.7188C99.555 21.5341 99.3162 21.3032 99.1729 20.98C99.0296 20.6568 98.9341 20.2874 98.9341 19.8718C98.9341 19.2254 99.1251 18.7175 99.4595 18.3481C99.7939 17.9787 100.272 17.794 100.94 17.794C101.513 17.794 101.991 17.9787 102.373 18.3481C102.708 18.7175 102.899 19.2254 102.899 19.8718L102.851 19.918ZM99.8416 19.918C99.8416 20.8415 100.176 21.3032 100.892 21.3032C101.609 21.3032 101.943 20.8415 101.943 19.918C101.943 18.9945 101.609 18.5328 100.892 18.5328C100.51 18.5328 100.272 18.6713 100.08 18.9022C99.8894 19.133 99.8416 19.4563 99.8416 19.918ZM107.532 21.9497H106.624V19.4563C106.624 19.133 106.577 18.9022 106.433 18.7636C106.29 18.6251 106.099 18.5328 105.812 18.5328C105.43 18.5328 105.144 18.6251 105 18.856C104.857 19.0869 104.762 19.4101 104.762 19.918V21.9035H103.902V17.8863H104.618L104.762 18.3943C104.762 18.3943 105.048 18.071 105.287 17.9325C105.526 17.8402 105.765 17.794 106.051 17.794C107.054 17.794 107.532 18.3019 107.532 19.2716V21.8573V21.9497ZM110.589 21.9958C109.92 21.9958 109.443 21.8111 109.06 21.4418C108.678 21.0724 108.535 20.5644 108.535 19.918C108.535 19.2716 108.726 18.7636 109.06 18.3943C109.395 18.0249 109.873 17.8402 110.446 17.8402C110.971 17.8402 111.449 18.0249 111.735 18.3481C112.07 18.6713 112.213 19.0869 112.213 19.6871V20.1489H109.443C109.443 20.5183 109.586 20.8415 109.777 21.0262C109.968 21.2571 110.302 21.3494 110.637 21.3494C110.876 21.3494 111.114 21.3494 111.305 21.3032C111.497 21.3032 111.735 21.1647 111.974 21.0724V21.765C111.974 21.765 111.544 21.9497 111.305 21.9958C111.067 21.9958 110.828 22.042 110.541 22.042L110.589 21.9958ZM110.398 18.4866C110.111 18.4866 109.873 18.5789 109.729 18.7175C109.538 18.9022 109.49 19.133 109.443 19.4563H111.305C111.305 19.133 111.21 18.856 111.067 18.7175C110.923 18.5328 110.685 18.4866 110.398 18.4866ZM112.404 17.9325H113.359L114.219 20.195C114.363 20.5183 114.458 20.8415 114.458 21.1185C114.458 21.1185 114.506 20.8415 114.601 20.6106C114.649 20.4259 114.983 19.5024 115.557 17.8863H116.512L114.745 22.4114C114.41 23.2426 113.885 23.6581 113.121 23.6581C112.93 23.6581 112.738 23.6581 112.547 23.6119V22.9193C112.547 22.9193 112.834 22.9193 113.025 22.9193C113.455 22.9193 113.742 22.6885 113.933 22.1805L114.076 21.8111L112.356 17.794L112.404 17.9325Z" fill="#263238"/>
</svg>
