<svg width="121" height="28" viewBox="0 0 121 28" fill="none" xmlns="http://www.w3.org/2000/svg">
<g clip-path="url(#clip0_712_9018)">
<mask id="mask0_712_9018" style="mask-type:luminance" maskUnits="userSpaceOnUse" x="0" y="0" width="121" height="28">
<path d="M120.047 0H0.046875V28H120.047V0Z" fill="white"/>
</mask>
<g mask="url(#mask0_712_9018)">
<path d="M24.2082 23.5463C23.575 24.2302 22.8743 24.8478 22.1169 25.3899C19.7518 27.0919 16.914 28.0068 14.0034 28.0056C11.5185 28.0054 9.07878 27.3396 6.9362 26.0768C4.79363 24.8141 3.02595 23.0004 1.81576 20.8229C0.605581 18.6455 -0.00320232 16.1833 0.0523122 13.6908C0.107827 11.1983 0.825625 8.76587 2.13155 6.64482C2.19551 6.53981 2.25948 6.45035 2.32537 6.33755L2.5192 6.03612C2.75954 5.68608 3.01798 5.34899 3.2945 5.02488L3.45925 4.8304C3.4843 4.79752 3.5115 4.76633 3.54066 4.73705C3.60074 4.6651 3.66277 4.59704 3.73448 4.52897L3.8062 4.45312L5.82199 7.29824L5.84524 7.33325C5.79872 7.38964 5.7522 7.44993 5.70956 7.50827C5.66212 7.56387 5.6181 7.62231 5.57776 7.6833C4.07183 9.69927 3.33463 12.1894 3.4995 14.7032C3.66435 17.2172 4.72039 19.589 6.47661 21.3896C8.23283 23.1901 10.5732 24.3007 13.0747 24.5205C15.5761 24.7402 18.0733 24.0546 20.1146 22.5876L18.9518 20.9521L16.9612 18.1498C17.7585 17.5756 18.3746 16.7838 18.7366 15.8686C19.04 15.0947 19.1505 14.2581 19.0582 13.4316C18.9659 12.6051 18.6738 11.8137 18.2073 11.1263C17.7407 10.4389 17.1139 9.87632 16.3812 9.4874C15.6485 9.09852 14.8322 8.8951 14.0034 8.89486H13.7824C12.8016 8.93687 11.8545 9.26536 11.0572 9.84002L9.05499 7.04349C9.82106 6.49449 10.6725 6.07656 11.5747 5.80665H11.5844C12.3692 5.57009 13.1839 5.44891 14.0034 5.44687C14.2572 5.44687 14.5073 5.45854 14.7554 5.47993C16.2506 5.61089 17.6849 6.13627 18.9125 7.0028C20.14 7.86933 21.1174 9.04619 21.7454 10.414C22.3734 11.7818 22.6298 13.292 22.4884 14.7913C22.347 16.2906 21.813 17.7257 20.9404 18.9509L22.1576 20.6603L24.2082 23.5463Z" fill="#0059FF"/>
<path fill-rule="evenodd" clip-rule="evenodd" d="M16.9525 18.1361C16.4115 18.5401 15.7956 18.8319 15.1409 18.9942C14.4861 19.1566 13.8057 19.1863 13.1393 19.0816C12.473 18.9769 11.8342 18.74 11.2603 18.3846C10.6863 18.0292 10.1887 17.5627 9.79664 17.012C9.40455 16.4614 9.12589 15.8379 8.9769 15.1779C8.82789 14.5179 8.81157 13.8347 8.92887 13.1683C9.04617 12.5019 9.29476 11.8658 9.66008 11.2969C10.0254 10.7281 10.5001 10.238 11.0565 9.85547L16.9525 18.1361Z" fill="#04254E"/>
<path d="M40.8156 15.3266L42.6898 16.7113C41.4706 18.3449 40.0363 19.0566 38.4508 19.0566C37.7775 19.0699 37.1084 18.9483 36.4825 18.6989C35.8566 18.4495 35.2866 18.0774 34.8057 17.6043C34.3249 17.1312 33.9429 16.5666 33.6822 15.9437C33.4214 15.3207 33.2871 14.6518 33.2871 13.9761C33.2871 13.3004 33.4214 12.6315 33.6822 12.0086C33.9429 11.3856 34.3249 10.821 34.8057 10.3479C35.2866 9.87486 35.8566 9.50274 36.4825 9.25331C37.1084 9.00393 37.7775 8.88229 38.4508 8.8955C40.0635 8.8955 41.525 9.65002 42.7422 11.2817L40.8426 12.6799C40.0771 11.6512 39.292 11.2408 38.4508 11.2408C37.7296 11.2408 37.038 11.5283 36.5279 12.04C36.018 12.5517 35.7315 13.2457 35.7315 13.9693C35.7315 14.6929 36.018 15.3868 36.5279 15.8986C37.038 16.4102 37.7296 16.6977 38.4508 16.6977C39.2979 16.6977 40.0499 16.334 40.8156 15.3266Z" fill="#04254E"/>
<path d="M46.0752 12.9962C46.6992 12.6842 47.388 12.5249 48.0851 12.5314L47.5521 14.6979C46.7459 14.6979 46.0752 15.1082 46.0752 15.6158V18.9218H43.916V12.6404H46.0752V12.9962Z" fill="#04254E"/>
<path d="M49.8485 21.8159L51.2576 18.3328L48.9473 12.6406H51.12L52.3372 15.6025L53.5254 12.6406H55.7001L51.9922 21.8159H49.8485Z" fill="#04254E"/>
<path d="M63.2176 15.7812C63.2174 16.65 62.8746 17.4833 62.264 18.0993C61.9614 18.3989 61.6026 18.6355 61.2084 18.7954C60.8142 18.9553 60.3923 19.0353 59.9671 19.0308C59.5711 19.0193 59.1887 18.8833 58.874 18.6419V21.8234H56.7109V12.6405H58.8701V12.9283C59.1826 12.6827 59.5664 12.5461 59.9633 12.5394C60.3886 12.5333 60.8108 12.6118 61.2057 12.7704C61.6006 12.929 61.9602 13.1643 62.264 13.4631C62.8746 14.0791 63.2174 14.9125 63.2176 15.7812ZM61.0584 15.7812C61.0561 15.5644 60.9899 15.3531 60.8682 15.174C60.7465 14.9948 60.5747 14.8558 60.3744 14.7744C60.1741 14.6931 59.9543 14.673 59.7426 14.7167C59.5309 14.7603 59.3369 14.8659 59.1849 15.0201C59.0329 15.1742 58.9297 15.37 58.8884 15.5828C58.8471 15.7956 58.8694 16.016 58.9527 16.216C59.036 16.4161 59.1762 16.5871 59.3561 16.7073C59.536 16.8275 59.7472 16.8916 59.9633 16.8916C60.1079 16.8909 60.2508 16.8616 60.3841 16.8054C60.5174 16.7491 60.6384 16.6671 60.7401 16.564C60.8417 16.4609 60.9222 16.3387 60.9768 16.2044C61.0315 16.0701 61.0592 15.9263 61.0584 15.7812Z" fill="#04254E"/>
<path d="M64.6408 16.6304V14.6566H63.8887V12.64H64.6408V10.6797H66.7999V12.64H68.3602V14.6566H66.7999V16.6013C66.7944 16.6471 66.8073 16.6933 66.8356 16.7298C66.8639 16.7662 66.9054 16.7899 66.9511 16.7958H68.2633L68.8235 18.9214H66.9182C66.6183 18.9224 66.3212 18.8638 66.044 18.7489C65.7669 18.6341 65.5152 18.4654 65.3034 18.2523C65.0916 18.0393 64.924 17.7863 64.8103 17.508C64.6966 17.2295 64.6389 16.9313 64.6408 16.6304Z" fill="#04254E"/>
<path d="M76.0003 15.7819C75.9991 16.6512 75.6548 17.4846 75.0428 18.0999C74.4368 18.7063 73.6155 19.0463 72.7595 19.0451C72.3266 19.0557 71.896 18.9793 71.4929 18.8205C71.09 18.6616 70.7226 18.4234 70.4128 18.12C70.1028 17.8166 69.8566 17.454 69.6884 17.0536C69.5203 16.6532 69.4336 16.2231 69.4336 15.7886C69.4336 15.3542 69.5203 14.9242 69.6884 14.5238C69.8566 14.1234 70.1028 13.7608 70.4128 13.4573C70.7226 13.1539 71.09 12.9157 71.4929 12.7569C71.896 12.598 72.3266 12.5217 72.7595 12.5322C73.1825 12.5291 73.6019 12.6098 73.9937 12.7697C74.3855 12.9294 74.7421 13.1654 75.0428 13.4638C75.6548 14.0791 75.9991 14.9126 76.0003 15.7819ZM73.8392 15.7819C73.8273 15.5008 73.7076 15.2351 73.5052 15.0404C73.3028 14.8457 73.0332 14.7369 72.7528 14.7369C72.4723 14.7369 72.2027 14.8457 72.0003 15.0404C71.7978 15.2351 71.6782 15.5008 71.6663 15.7819C71.6602 15.9289 71.6836 16.0756 71.7355 16.2133C71.7873 16.3509 71.8663 16.4767 71.9678 16.5829C72.0693 16.6891 72.1912 16.7737 72.3261 16.8313C72.4609 16.8891 72.6061 16.9189 72.7528 16.9189C72.8994 16.9189 73.0446 16.8891 73.1795 16.8313C73.3143 16.7737 73.4362 16.6891 73.5377 16.5829C73.6392 16.4767 73.7183 16.3509 73.77 16.2133C73.8218 16.0756 73.8453 15.9289 73.8392 15.7819Z" fill="#04254E"/>
<path d="M83.6122 15.7811C83.6118 16.6506 83.2674 17.4843 82.6547 18.0992C82.3523 18.3986 81.9938 18.6351 81.6 18.795C81.2061 18.9549 80.7846 19.0349 80.3598 19.0306C79.9631 19.0196 79.58 18.8836 79.2646 18.6417V21.8233H77.1055V12.6404H79.2646V12.9281C79.5778 12.6825 79.9623 12.5459 80.3598 12.5392C80.7846 12.535 81.2061 12.6151 81.6 12.775C81.9938 12.9349 82.3523 13.1713 82.6547 13.4708C83.2655 14.0837 83.6098 14.9143 83.6122 15.7811ZM81.453 15.7811C81.4507 15.5642 81.3844 15.3528 81.2627 15.1736C81.1408 14.9944 80.9689 14.8555 80.7684 14.7741C80.5681 14.6928 80.3482 14.6728 80.1364 14.7167C79.9247 14.7606 79.7307 14.8663 79.5788 15.0206C79.4269 15.175 79.3239 15.3709 79.2828 15.5838C79.2417 15.7967 79.2643 16.0172 79.3478 16.2172C79.4313 16.4173 79.572 16.588 79.7521 16.708C79.9322 16.8281 80.1436 16.8919 80.3598 16.8915C80.5043 16.8907 80.6472 16.8614 80.7804 16.8051C80.9136 16.7489 81.0343 16.6669 81.1359 16.5638C81.2374 16.4606 81.3177 16.3384 81.3721 16.204C81.4265 16.0697 81.454 15.926 81.453 15.7811Z" fill="#04254E"/>
<path d="M90.9944 15.7819C90.994 16.6509 90.6503 17.4844 90.0389 18.0999C89.4325 18.7057 88.6114 19.0457 87.7556 19.0451C87.3227 19.0557 86.8921 18.9793 86.489 18.8205C86.0861 18.6616 85.7187 18.4234 85.4088 18.12C85.0989 17.8166 84.8527 17.454 84.6845 17.0536C84.5164 16.6532 84.4297 16.2231 84.4297 15.7886C84.4297 15.3542 84.5164 14.9242 84.6845 14.5238C84.8527 14.1234 85.0989 13.7608 85.4088 13.4573C85.7187 13.1539 86.0861 12.9157 86.489 12.7569C86.8921 12.598 87.3227 12.5217 87.7556 12.5322C88.1785 12.5294 88.5979 12.6102 88.9896 12.7701C89.3814 12.9299 89.738 13.1657 90.0389 13.4638C90.6503 14.0793 90.994 14.9128 90.9944 15.7819ZM88.8353 15.7819C88.8234 15.5008 88.7037 15.2351 88.5013 15.0404C88.2989 14.8457 88.0293 14.7369 87.7489 14.7369C87.4684 14.7369 87.1988 14.8457 86.9964 15.0404C86.7939 15.2351 86.6742 15.5008 86.6624 15.7819C86.6563 15.9289 86.6797 16.0756 86.7316 16.2133C86.7834 16.3509 86.8624 16.4767 86.9639 16.5829C87.0654 16.6891 87.1873 16.7737 87.3222 16.8313C87.457 16.8891 87.6022 16.9189 87.7489 16.9189C87.8955 16.9189 88.0407 16.8891 88.1755 16.8313C88.3104 16.7737 88.4323 16.6891 88.5338 16.5829C88.6353 16.4767 88.7143 16.3509 88.7661 16.2133C88.8179 16.0756 88.8414 15.9289 88.8353 15.7819Z" fill="#04254E"/>
<path d="M92.2246 18.9233V8.87109H94.3997V18.9233H92.2246Z" fill="#04254E"/>
<path d="M96.3105 10.5591C96.3105 10.397 96.3422 10.2363 96.4036 10.0864C96.465 9.93641 96.5552 9.80024 96.6696 9.68544C96.784 9.57073 96.9199 9.47973 97.0687 9.41776C97.2185 9.35579 97.3785 9.32397 97.5394 9.32422C97.8659 9.32422 98.1794 9.45435 98.4101 9.68591C98.6408 9.91747 98.771 10.2316 98.771 10.5591C98.771 10.8866 98.6408 11.2007 98.4101 11.4324C98.1794 11.6639 97.8659 11.794 97.5394 11.794C97.3785 11.7945 97.2175 11.7629 97.0687 11.7011C96.9189 11.6391 96.7831 11.5482 96.6687 11.4334C96.5552 11.3186 96.464 11.1822 96.4026 11.0321C96.3412 10.8821 96.3105 10.7213 96.3105 10.5591ZM96.4622 12.6438H98.6212V18.9253H96.4622V12.6438Z" fill="#04254E"/>
<path d="M100.89 16.6304V14.6566H100.141V12.64H100.89V10.6797H103.051V12.64H104.602V14.6566H103.051V16.6013C103.046 16.6469 103.059 16.6928 103.087 16.7292C103.115 16.7656 103.156 16.7895 103.201 16.7958H104.519L105.079 18.9214H103.18C102.878 18.9239 102.581 18.8665 102.302 18.7524C102.023 18.6382 101.77 18.4697 101.557 18.2565C101.344 18.0433 101.176 17.7898 101.061 17.5107C100.946 17.2315 100.889 16.9323 100.89 16.6304Z" fill="#04254E"/>
<path d="M110.078 12.928V12.6401H112.251V18.9216H110.078V18.6337C109.776 18.8916 109.392 19.0299 108.996 19.0227C108.571 19.0227 108.149 18.9387 107.757 18.7753C107.364 18.612 107.007 18.3727 106.706 18.0709C106.405 17.7691 106.167 17.4109 106.004 17.0166C105.842 16.6224 105.758 16.1998 105.758 15.7731C105.758 15.3463 105.842 14.9237 106.004 14.5295C106.167 14.1353 106.405 13.777 106.706 13.4752C107.007 13.1735 107.364 12.9342 107.757 12.7708C108.149 12.6075 108.571 12.5235 108.996 12.5235C109.394 12.5205 109.779 12.6645 110.078 12.928ZM110.078 15.7808C110.074 15.5657 110.007 15.3565 109.885 15.1796C109.762 15.0026 109.591 14.8658 109.392 14.7863C109.192 14.7069 108.975 14.6884 108.764 14.7332C108.555 14.778 108.362 14.8839 108.213 15.0378C108.063 15.1917 107.962 15.3867 107.922 15.5981C107.882 15.8096 107.906 16.0281 107.989 16.2262C108.073 16.4243 108.214 16.5932 108.393 16.7115C108.572 16.8299 108.782 16.8924 108.996 16.8913C109.286 16.8872 109.562 16.7681 109.765 16.56C109.968 16.3519 110.081 16.0717 110.078 15.7808Z" fill="#04254E"/>
<path d="M118.919 13.4356C119.484 14.0086 119.799 14.7828 119.796 15.5885V18.9217H117.637V15.5885C117.637 15.3537 117.543 15.1287 117.378 14.9628C117.212 14.7968 116.988 14.7036 116.755 14.7036C116.52 14.7036 116.296 14.7968 116.13 14.9628C115.966 15.1287 115.873 15.3537 115.873 15.5885V18.9217H113.711V12.6402H115.873V12.9281C115.981 12.6675 116.454 12.5392 116.76 12.5392C117.16 12.5358 117.557 12.6118 117.927 12.7626C118.298 12.9134 118.635 13.1362 118.919 13.4182V13.4356Z" fill="#04254E"/>
<path fill-rule="evenodd" clip-rule="evenodd" d="M27.9527 14.0007C27.9527 16.5479 27.2744 19.0367 25.9566 21.2146L23.7085 18.0451C24.5224 16.1007 24.7356 13.9423 24.3093 11.8617C24.2899 11.8034 24.2899 11.7257 24.2705 11.6673V11.6479C24.2512 11.5701 24.2317 11.5117 24.2124 11.434C24.193 11.3562 24.193 11.3173 24.1736 11.259C24.1349 11.1229 24.0961 11.0062 24.0573 10.8701C24.0573 10.8312 24.038 10.7923 24.0186 10.7534C24.0186 10.734 23.9992 10.7146 23.9992 10.6951C23.9605 10.5784 23.9217 10.4617 23.8829 10.3451C23.8635 10.2673 23.8247 10.1896 23.786 10.1117C23.7473 10.034 23.7279 9.95624 23.6891 9.8784C23.6503 9.80065 23.631 9.72291 23.5922 9.64507C23.5147 9.48957 23.4566 9.33399 23.3791 9.17844C23.3403 9.1201 23.3209 9.04233 23.2821 8.984L23.2628 8.96455C23.2628 8.96455 23.2628 8.96455 23.2628 8.9451C23.224 8.86733 23.1852 8.809 23.1465 8.73122C23.1077 8.65344 23.0689 8.57566 23.0108 8.51733C22.914 8.36177 22.817 8.20622 22.7201 8.05066C22.1581 7.21455 21.4798 6.47566 20.724 5.85344L20.5496 5.69789L20.317 5.52289C20.2589 5.46455 20.1814 5.42566 20.1039 5.36733C20.0263 5.309 19.9682 5.2701 19.91 5.23122C19.8326 5.17289 19.7551 5.134 19.6775 5.07566C19.6 5.01733 19.5612 4.99789 19.5225 4.97844C19.4837 4.959 19.4256 4.9201 19.3674 4.88122C16.6349 3.26733 13.3403 2.97566 10.3752 4.06455C9.6 4.35622 7.97207 5.32844 7.91393 5.36733L5.89844 2.60622L6.16975 2.43122C6.84805 1.96455 7.5651 1.55622 8.30153 1.22566C12.1775 -0.524337 16.6155 -0.388227 20.3946 1.55622C20.5302 1.61455 20.6659 1.69233 20.7821 1.7701C20.8403 1.809 20.9178 1.84789 20.9759 1.88677L21.1503 2.00344C21.2085 2.04233 21.2667 2.08122 21.3248 2.1201C21.4605 2.19789 21.5767 2.27566 21.7124 2.35344L21.8674 2.45066C21.9449 2.48955 22.0031 2.54789 22.0806 2.60622C22.1581 2.66455 22.2356 2.70344 22.2938 2.76177L22.41 2.859L22.6038 3.01455C22.7782 3.15066 22.9527 3.30622 23.1271 3.44233C23.3015 3.57844 23.4566 3.734 23.631 3.88955L23.8635 4.12289C23.941 4.20066 24.0186 4.27844 24.0961 4.35622C24.2512 4.51177 24.3868 4.66733 24.5225 4.82289L24.6968 5.03677C24.755 5.11455 24.8132 5.17289 24.8713 5.25066C24.9295 5.32844 24.9682 5.36733 25.007 5.42566C25.0458 5.484 25.1039 5.54233 25.1426 5.60066L25.2782 5.77566C25.3364 5.85344 25.3946 5.93122 25.4333 6.009C25.4721 6.08677 25.5496 6.16455 25.5884 6.24233C25.6077 6.28122 25.6465 6.3201 25.6659 6.359C25.6852 6.39789 25.724 6.43677 25.7434 6.47566L25.8596 6.6701C25.9178 6.76733 25.976 6.86455 26.0341 6.96177L26.1503 7.17566L26.2667 7.38955C26.2667 7.38955 26.2666 7.409 26.286 7.409L26.3054 7.42844C26.3054 7.42844 26.3054 7.44789 26.3248 7.44789C26.3248 7.44789 26.3247 7.46733 26.3442 7.46733L26.4605 7.68122L26.4798 7.70066C26.5186 7.77844 26.5574 7.85622 26.5961 7.95344C26.6349 8.05066 26.6737 8.12844 26.7124 8.22566L26.8093 8.45899L26.9062 8.67289L26.9837 8.86733C27.0225 8.96455 27.0612 9.04233 27.0807 9.1201C27.1 9.13955 27.1 9.159 27.1 9.19789C27.1388 9.2951 27.1775 9.39232 27.1969 9.48957C27.2744 9.7034 27.3326 9.91732 27.3907 10.1507C27.41 10.2479 27.4488 10.3646 27.4682 10.4617V10.5007C27.5263 10.734 27.5845 10.9479 27.6233 11.1812C27.6426 11.2979 27.662 11.4146 27.6814 11.5117C27.6814 11.5312 27.6814 11.5507 27.6814 11.5507C27.7007 11.6479 27.7201 11.7451 27.7395 11.8423L27.7783 12.1729V12.1923C27.7977 12.309 27.7977 12.4257 27.817 12.5423C27.8365 12.7562 27.8558 12.9701 27.8752 13.2034C27.9527 13.4757 27.9527 13.7284 27.9527 14.0007Z" fill="#04254E"/>
<path d="M24.1941 23.5476C23.5546 24.2281 22.8569 24.8504 22.1011 25.3948C19.7562 27.0865 16.9073 28.0004 14.0004 28.0004C6.28718 28.0004 0.046875 21.7392 0.046875 14.0004C0.046875 11.3948 0.763929 8.84758 2.12052 6.65035C2.17866 6.55312 2.25618 6.45591 2.31432 6.33924L2.50811 6.04758C2.74067 5.69758 3.01199 5.36702 3.28331 5.03646L3.45773 4.84202C3.47711 4.80312 3.51587 4.78368 3.53525 4.74479C3.59339 4.66702 3.65153 4.60868 3.72904 4.53091L3.80657 4.45312L5.82207 7.29202L5.84145 7.33091C5.80269 7.38924 5.74455 7.44758 5.70579 7.50591C5.66703 7.56424 5.60889 7.62258 5.57013 7.68091C2.08176 12.3476 3.03137 18.9587 7.68253 22.4392C11.3453 25.2004 16.3841 25.2587 20.105 22.5754L18.9422 20.9421L16.9655 18.1421C17.7601 17.5587 18.3802 16.7809 18.7485 15.8671C19.7755 13.2421 18.4965 10.2865 15.8802 9.25591C15.2794 9.02258 14.6592 8.90591 14.0197 8.90591H13.8066C12.8182 8.94479 11.888 9.27535 11.074 9.85873L9.0585 7.03924C9.83366 6.49479 10.6671 6.06702 11.5779 5.79479C12.3531 5.56146 13.1864 5.44479 14.0004 5.44479C14.2523 5.44479 14.5043 5.46424 14.7562 5.48368C19.4461 5.89202 22.8957 10.0337 22.4887 14.7392C22.3531 16.2559 21.8104 17.7142 20.9383 18.9587L22.1592 20.6698L24.1941 23.5476Z" fill="#0059FF"/>
<path fill-rule="evenodd" clip-rule="evenodd" d="M16.9457 18.1427C14.6976 19.815 11.5194 19.3483 9.85268 17.0927C8.18603 14.8371 8.65115 11.6483 10.8992 9.97604C10.9573 9.93712 11.0155 9.8983 11.0543 9.85938L16.9457 18.1427Z" fill="#04254E"/>
<path d="M40.8031 15.3229L42.6829 16.7034C41.4619 18.3368 40.0279 19.0563 38.4387 19.0563C35.648 19.1146 33.3224 16.8784 33.2837 14.0784C33.2449 11.2784 35.4542 8.94514 38.2449 8.90625C38.3031 8.90625 38.3805 8.90625 38.4387 8.90625C40.0472 8.90625 41.5201 9.66461 42.7217 11.2979L40.8224 12.6979C40.0666 11.6674 39.2721 11.259 38.4387 11.259C36.9465 11.259 35.7256 12.484 35.7256 13.9813C35.7256 15.4784 36.9465 16.7034 38.4387 16.7034C39.2914 16.7034 40.0472 16.334 40.8031 15.3229Z" fill="#04254E"/>
<path d="M46.0732 12.9901C46.6933 12.6789 47.391 12.5234 48.0887 12.5234L47.5654 14.6818C46.7515 14.6818 46.0926 15.0901 46.0926 15.5956V18.9012H43.9414V12.6401H46.0926V12.9901H46.0732Z" fill="#04254E"/>
<path d="M49.8328 21.8184L51.2476 18.3378L48.9414 12.6406H51.1119L52.3328 15.5961L53.5151 12.6406H55.6856L51.984 21.8184H49.8328Z" fill="#04254E"/>
<path d="M63.2069 15.7715C63.2069 16.6465 62.8581 17.4826 62.2574 18.0855C61.6372 18.6882 60.8232 19.0188 59.9511 19.0188C59.5635 18.9993 59.176 18.8632 58.8658 18.6299V21.8188H56.6953V12.6409H58.8465V12.9326C59.1565 12.6799 59.5442 12.5438 59.9318 12.5438C60.7844 12.5243 61.6178 12.8549 62.2379 13.4771C62.8581 14.0799 63.2069 14.9159 63.2069 15.7715ZM61.0558 15.7715C61.0558 15.1688 60.5519 14.6826 59.9511 14.6826C59.3504 14.6826 58.8658 15.1882 58.8658 15.7909C58.8658 16.3938 59.3697 16.8799 59.9511 16.8799C60.5713 16.8799 61.0558 16.3938 61.0558 15.7715Z" fill="#04254E"/>
<path d="M64.6191 16.6258V14.6619H63.8633V12.6397H64.6191V10.6758H66.7703V12.6397H68.3207V14.6619H66.7703V16.6064C66.7509 16.7035 66.8284 16.7814 66.9253 16.8008H68.2432L68.8051 18.9202H66.906C65.6463 18.9202 64.6385 17.9091 64.6191 16.6452C64.6191 16.6452 64.6191 16.6452 64.6191 16.6258Z" fill="#04254E"/>
<path d="M75.9963 15.7706C75.9963 16.6456 75.6475 17.4818 75.0466 18.0845C74.4459 18.6873 73.6126 19.0373 72.7599 19.0373C70.9769 19.0762 69.4847 17.6568 69.4266 15.8679C69.3878 14.0789 70.8025 12.5818 72.5854 12.5234C72.6436 12.5234 72.6824 12.5234 72.7405 12.5234C73.5932 12.5234 74.4071 12.8539 75.0273 13.4568C75.6475 14.0789 75.9769 14.9151 75.9963 15.7706ZM73.8257 15.7706C73.8064 15.1679 73.3025 14.7012 72.7017 14.7206C72.1397 14.7401 71.694 15.2068 71.6552 15.7706C71.6359 16.3734 72.101 16.8789 72.7017 16.8984C73.3025 16.9179 73.8064 16.4512 73.8257 15.8484C73.8257 15.8484 73.8257 15.8095 73.8257 15.7706Z" fill="#04254E"/>
<path d="M83.5921 15.7707C83.5921 16.6457 83.2432 17.4819 82.6424 18.0846C82.0223 18.6874 81.2083 19.018 80.3556 19.018C79.968 18.9986 79.5803 18.8624 79.2703 18.629V21.818H77.1191V12.6402H79.2703V12.9319C79.5803 12.679 79.968 12.543 80.3556 12.543C81.2083 12.543 82.0417 12.8736 82.6424 13.4763C83.2432 14.079 83.5921 14.9152 83.5921 15.7707ZM81.4408 15.7707C81.4408 15.168 80.937 14.6819 80.3362 14.6819C79.7354 14.6819 79.251 15.1874 79.251 15.7902C79.251 16.393 79.7548 16.879 80.3556 16.879C80.9564 16.879 81.4408 16.393 81.4408 15.7707Z" fill="#04254E"/>
<path d="M90.9788 15.7706C90.9788 16.6456 90.63 17.4818 90.0292 18.0845C89.4284 18.6873 88.5951 19.0373 87.7424 19.0373C85.9594 19.0762 84.4671 17.6568 84.409 15.8679C84.3703 14.0789 85.785 12.5818 87.568 12.5234C87.6261 12.5234 87.6648 12.5234 87.7229 12.5234C88.5757 12.5234 89.3896 12.8539 90.0098 13.4568C90.63 14.0789 90.9788 14.9151 90.9788 15.7706ZM88.8277 15.7706C88.8082 15.1679 88.3043 14.7012 87.7036 14.7206C87.1415 14.7401 86.6959 15.2068 86.6571 15.7706C86.6377 16.3734 87.1028 16.8789 87.7036 16.8984C88.3043 16.9179 88.8082 16.4512 88.8277 15.8484C88.8277 15.8484 88.8277 15.8095 88.8277 15.7706Z" fill="#04254E"/>
<path d="M92.2188 18.9199V8.86719H94.389V18.9199H92.2188Z" fill="#04254E"/>
<path d="M96.3066 10.557C96.3066 9.87644 96.849 9.33203 97.5271 9.33203C98.2052 9.33203 98.7671 9.87644 98.7671 10.557C98.7671 11.2376 98.2248 11.8014 97.5271 11.8014C96.849 11.782 96.3066 11.2376 96.3066 10.557ZM96.4415 12.6376H98.5932V18.9181H96.4415V12.6376Z" fill="#04254E"/>
<path d="M100.88 16.6258V14.6619H100.125V12.6397H100.88V10.6758H103.052V12.6397H104.601V14.6619H103.052V16.6064C103.032 16.7035 103.109 16.7814 103.206 16.8008H104.524L105.086 18.9202H103.187C101.927 18.9397 100.9 17.9285 100.9 16.6647C100.88 16.6452 100.88 16.6452 100.88 16.6258Z" fill="#04254E"/>
<path d="M110.066 12.9318V12.6401H112.236V18.9206H110.066V18.6289C109.756 18.8818 109.388 19.0179 108.98 19.0179C107.197 19.0179 105.744 17.5595 105.744 15.7706C105.744 13.9818 107.197 12.5234 108.98 12.5234C109.368 12.5234 109.756 12.6595 110.066 12.9318ZM110.066 15.7706C110.046 15.1679 109.562 14.6818 108.961 14.7012C108.36 14.7206 107.876 15.2068 107.895 15.8095C107.914 16.4123 108.399 16.8789 108.98 16.8789C109.581 16.8789 110.066 16.3929 110.066 15.7706Z" fill="#04254E"/>
<path d="M118.902 13.4382C119.464 14.0021 119.775 14.7799 119.775 15.5965V18.9215H117.623V15.5965C117.623 15.1105 117.236 14.7021 116.752 14.7021C116.267 14.7021 115.86 15.0909 115.86 15.5771V18.9021H113.689V12.6409H115.86V12.9326C115.976 12.6799 116.441 12.5438 116.752 12.5438C117.546 12.5243 118.321 12.8549 118.902 13.4382Z" fill="#04254E"/>
</g>
</g>
<defs>
<clipPath id="clip0_712_9018">
<rect width="120" height="28" fill="white" transform="translate(0.046875)"/>
</clipPath>
</defs>
</svg>
