<svg width="128" height="30" viewBox="0 0 128 30" fill="none" xmlns="http://www.w3.org/2000/svg">
<path d="M22.5754 15.0022L15.1367 22.4398H30.0142L22.5754 15.0022Z" fill="#0F0717"/>
<path d="M22.5754 15.0054L30.0142 7.56773H15.1367L22.5754 15.0054Z" fill="#0F0718"/>
<path d="M7.70044 15.0002L0.261719 7.56258V22.4379L7.70044 15.0002Z" fill="#F14C8F"/>
<path d="M15.1418 7.56177L22.5806 0.124125H7.70312L15.1418 7.56177Z" fill="#5E0150"/>
<path d="M22.5754 29.876L30.0142 22.4383H15.1367L22.5754 29.876Z" fill="#2E0970"/>
<path d="M7.70044 29.876L15.1392 22.4383H0.261719L7.70044 29.876Z" fill="#C30035"/>
<path d="M22.5754 0.124125L15.1367 7.56177H30.0142L22.5754 0.124125Z" fill="#2E0970"/>
<path d="M0.261719 7.56177H15.1392L7.70044 0.124125L0.261719 7.56177Z" fill="#C30035"/>
<path d="M15.1418 22.4383L7.70312 29.876H22.5806L15.1418 22.4383Z" fill="#5E0150"/>
<path d="M7.70044 15.0002L0.261719 22.4379H15.1392L7.70044 15.0002Z" fill="#D7186A"/>
<path d="M15.1392 7.56578H0.261719L7.70044 15.0034L15.1392 7.56578Z" fill="#D7186A"/>
<path d="M38.1173 18.4191C38.5209 18.4191 38.8217 18.3091 39.0198 18.0889C39.2106 17.8688 39.3133 17.546 39.3133 17.1204H42.0576L42.0796 17.1717C42.1066 17.655 42.022 18.138 41.8324 18.5833C41.6428 19.0286 41.3533 19.4244 40.9863 19.7399C40.1896 20.4159 39.1688 20.7693 38.1247 20.7305C36.6571 20.7305 35.5345 20.2755 34.7494 19.3657C33.9261 18.3787 33.4997 17.1205 33.5533 15.8363V15.6309C33.5533 14.1927 33.9496 13.0187 34.742 12.1088C35.5271 11.199 36.6498 10.744 38.0953 10.744C39.3133 10.744 40.2892 11.0816 41.0157 11.7639C41.3863 12.1225 41.6737 12.558 41.8576 13.0398C42.0414 13.5216 42.1172 14.0379 42.0796 14.5522L42.0576 14.6036H39.3133C39.3301 14.2064 39.2223 13.8139 39.0052 13.4809C38.807 13.1948 38.4989 13.0554 38.0953 13.0554C37.523 13.0554 37.1267 13.2902 36.8993 13.7524C36.6459 14.3451 36.5281 14.9868 36.5544 15.6309V15.8363C36.5544 16.6434 36.6645 17.2745 36.8993 17.7294C37.1194 18.1843 37.5303 18.4191 38.1173 18.4191ZM48.7495 13.569L47.6488 13.5617C47.3113 13.5617 47.0251 13.6204 46.805 13.7304C46.5849 13.8478 46.4235 14.0092 46.3207 14.2294V20.5397H43.3123V10.9201H46.1446L46.2474 12.3289C46.4159 11.8773 46.6931 11.474 47.0545 11.1549C47.379 10.8831 47.7906 10.7372 48.2138 10.744C48.4934 10.743 48.7721 10.7775 49.043 10.8468L48.7495 13.569ZM54.4581 16.2986V16.372H54.5168L56.1091 10.9201H59.3083L55.478 21.9705C55.1845 22.6823 54.7956 23.2693 54.3334 23.7315C53.8638 24.1938 53.1153 24.4286 52.0954 24.4286C51.8386 24.4286 51.6258 24.4139 51.457 24.3772C51.2956 24.3479 51.0315 24.2892 50.6793 24.2011L51.0461 22.0586L51.2296 22.1026L51.3837 22.1173C51.8606 22.1173 52.2055 22.0439 52.4256 21.9045C52.6457 21.7651 52.8072 21.5523 52.9172 21.2735L53.1594 20.6498L49.8281 10.9201H53.0199L54.4581 16.2986ZM66.0148 15.7483C66.0148 14.9411 65.8901 14.2807 65.6479 13.7891C65.4131 13.2975 65.0389 13.0554 64.5179 13.0554C64.1731 13.0554 63.8869 13.1141 63.6594 13.2388C63.4246 13.3635 63.2339 13.547 63.1018 13.7818V17.8028C63.2485 18.0082 63.432 18.1697 63.6668 18.265C63.9426 18.3716 64.2371 18.4215 64.5326 18.4118C65.0609 18.4118 65.4351 18.1917 65.6626 17.7588C65.9236 17.1866 66.0419 16.5596 66.0075 15.9317V15.7483H66.0148ZM69.0085 15.9317C69.0085 17.3845 68.6783 18.5439 68.0253 19.417C67.7099 19.8452 67.2938 20.1891 66.8139 20.4182C66.334 20.6472 65.805 20.7545 65.2737 20.7305C64.8549 20.742 64.4394 20.6535 64.0617 20.4723C63.6839 20.2911 63.3549 20.0224 63.1018 19.6885V24.2378H60.0934V10.9201H62.9037L63.0137 11.9767C63.2434 11.5907 63.5718 11.273 63.9652 11.0563C64.3586 10.8396 64.8027 10.7318 65.2517 10.744C66.4477 10.744 67.3649 11.199 68.0253 12.1162C68.7245 13.1944 69.0684 14.4646 69.0085 15.7483V15.9317ZM73.888 8.52808V10.9201H75.517V12.9967H73.888V17.4139C73.888 17.7514 73.9614 18.0009 74.0935 18.1476C74.1652 18.2251 74.2528 18.2862 74.3503 18.3267C74.4478 18.3673 74.5529 18.3863 74.6585 18.3824C74.9542 18.3826 75.2492 18.3531 75.539 18.2944L75.7444 20.5177C75.1412 20.6627 74.5231 20.7366 73.9027 20.7378C72.9121 20.7305 72.1637 20.4663 71.6574 19.9307C71.1438 19.4097 70.887 18.5732 70.887 17.4359V12.9967H69.5368V10.9201H70.887V8.52808H73.888ZM79.2665 15.829C79.2665 16.6361 79.3912 17.2671 79.648 17.7294C79.8975 18.1843 80.3231 18.4118 80.9321 18.4118C81.5191 18.4118 81.9374 18.1843 82.1942 17.7221C82.451 17.2598 82.5757 16.6214 82.5757 15.829V15.6382C82.6042 14.9903 82.4732 14.3452 82.1942 13.7598C81.9374 13.2902 81.5118 13.0554 80.9101 13.0554C80.3231 13.0554 79.8975 13.2902 79.648 13.7671C79.3912 14.2367 79.2665 14.8677 79.2665 15.6382V15.829ZM76.2581 15.6382C76.2037 14.3476 76.6447 13.0849 77.4908 12.1088C78.3052 11.199 79.4499 10.7367 80.9174 10.7367C82.3849 10.7367 83.5296 11.199 84.3441 12.1088C85.1882 13.0861 85.629 14.3479 85.5768 15.6382V15.829C85.5768 17.2818 85.1659 18.4632 84.3441 19.3657C83.5296 20.2755 82.3923 20.7305 80.9321 20.7305C79.4572 20.7305 78.3053 20.2755 77.4834 19.3657C76.6422 18.3847 76.2066 17.1199 76.2654 15.829V15.6382H76.2581ZM89.6638 10.9201L89.7812 12.2702C90.0967 11.7933 90.4856 11.4117 90.9479 11.1476C91.4159 10.8771 91.9482 10.7377 92.4888 10.744C93.4353 10.744 94.1764 11.0449 94.7047 11.6539C95.233 12.2702 95.4972 13.2388 95.4972 14.5742V20.5397H92.4888V14.5669C92.4888 14.0166 92.3787 13.6204 92.1513 13.3929C91.9238 13.1728 91.5863 13.0554 91.1387 13.0554C90.8932 13.0477 90.6491 13.0951 90.4243 13.1941C90.1996 13.2932 89.9999 13.4413 89.8399 13.6277V20.5397H86.8535V10.9201H89.6712H89.6638ZM101.316 13.0554C100.883 13.0554 100.56 13.2021 100.34 13.5176C100.12 13.8258 99.9951 14.2367 99.9438 14.7503L99.9731 14.7944H102.563V14.5669C102.563 14.0753 102.461 13.7084 102.262 13.4443C102.057 13.1801 101.749 13.0554 101.316 13.0554ZM101.536 20.7305C100.113 20.7305 98.9826 20.2902 98.1387 19.395C97.7171 18.9485 97.3878 18.423 97.17 17.8488C96.9521 17.2746 96.85 16.6629 96.8693 16.0491V15.7116C96.8693 14.2441 97.2509 13.048 98.0213 12.1235C98.7918 11.199 99.8851 10.7294 101.316 10.744C102.622 10.744 103.642 11.1329 104.383 11.918C105.157 12.7899 105.557 13.9309 105.498 15.0952V16.6728H99.9951L99.9805 16.7242C100.054 17.2158 100.245 17.6267 100.589 17.9422C100.927 18.2577 101.375 18.4191 101.94 18.4191C102.861 18.44 103.773 18.2333 104.596 17.8175L105.308 19.6518C104.811 19.9976 104.261 20.258 103.679 20.4223C103.011 20.6277 102.292 20.7305 101.529 20.7305M115.03 16.4967H115.081L116.123 10.9201H118.897L116.637 20.5397H114.098L112.528 15.4401H112.476L110.906 20.5397H108.367L106.1 10.9201H108.874L109.93 16.5407H109.989L111.552 10.9201H113.445L115.03 16.4967ZM124.987 17.8395C124.987 17.6047 124.855 17.3919 124.583 17.2011C124.128 16.9484 123.631 16.7794 123.116 16.7021C122.199 16.5683 121.329 16.2159 120.577 15.6749C120.297 15.4475 120.075 15.158 119.927 14.8293C119.779 14.5005 119.71 14.1418 119.726 13.7818C119.726 13.3646 119.821 12.953 120.006 12.5789C120.19 12.2048 120.459 11.8782 120.79 11.6245C121.502 11.0375 122.47 10.744 123.681 10.744C124.965 10.744 125.985 11.0302 126.741 11.6025C127.096 11.8481 127.383 12.1807 127.573 12.5687C127.763 12.9567 127.85 13.387 127.827 13.8185L127.812 13.8698H124.892C124.892 13.4956 124.796 13.2095 124.598 13.0113C124.407 12.8132 124.099 12.7178 123.674 12.7178C123.358 12.7178 123.094 12.7985 122.881 12.9746C122.779 13.0525 122.698 13.1537 122.643 13.2697C122.589 13.3857 122.563 13.513 122.568 13.641C122.573 13.769 122.609 13.8939 122.672 14.0053C122.736 14.1166 122.825 14.2111 122.932 14.2807C123.395 14.532 123.9 14.6938 124.422 14.7577C125.363 14.8938 126.258 15.2508 127.034 15.7996C127.317 16.0368 127.541 16.3367 127.687 16.6756C127.834 17.0144 127.899 17.3828 127.878 17.7514C127.878 18.6172 127.496 19.329 126.726 19.8867C125.827 20.4865 124.76 20.7823 123.681 20.7305C122.375 20.7305 121.333 20.3929 120.577 19.7326C119.814 19.0722 119.447 18.3237 119.484 17.5093L119.506 17.4579H122.221C122.235 17.9128 122.367 18.243 122.639 18.4411C122.903 18.6466 123.277 18.742 123.762 18.742C124.165 18.742 124.473 18.6686 124.679 18.5072C124.884 18.3531 124.987 18.1256 124.987 17.8395Z" fill="#151011"/>
</svg>
