<svg width="175" height="32" viewBox="0 0 175 32" fill="none" xmlns="http://www.w3.org/2000/svg">
<path d="M150.981 9.95368H153.313V14.7797H150.981V25.9432H152.964V30.7111H146.202V14.7797H143.753V9.95368H146.202V3.26715H150.981V9.95368ZM136.816 14.7797H135.301V9.95368H141.654V25.9432H143.637V30.7691H134.835V25.9432H136.816V14.7797ZM136.816 8.03495V3.26715H141.654V8.03495H136.816ZM2.86277 14.7797H0.880859V9.95368H7.70096V12.1632C8.98338 11.0002 11.7231 9.72108 15.104 9.72108V14.6634C9.27482 14.7797 7.70096 17.6287 7.70096 20.3033V25.9432H9.62455V30.7691H0.880859V25.9432H2.86277V14.7797ZM60.4547 14.7797V9.95368H53.9844V11.4073C52.2939 10.3026 50.3703 9.72108 48.2718 9.72108C45.2989 9.72108 42.7924 10.7677 40.7522 12.8609C38.712 14.954 37.6045 17.4542 37.6045 20.4196C37.6045 23.3849 38.6537 25.8845 40.7522 27.9195C42.8507 30.0133 45.3572 31.0599 48.2718 31.0599C50.4286 31.0599 52.2939 30.5366 53.9844 29.3737V30.7111H60.4547V25.8851H58.9392V14.7797H60.4547ZM48.6216 26.5247C45.1824 26.5247 42.4427 23.7337 42.4427 20.3608C42.4427 16.9309 45.2407 14.1982 48.6216 14.1982C52.0607 14.1982 54.6838 16.9891 54.6838 20.3614C54.6838 23.7337 52.0024 26.5247 48.6216 26.5247ZM82.4891 25.9432V0.941406H75.5522V5.76734H77.5343V11.5817C75.7854 10.4188 73.8617 9.77923 71.5884 9.77923C68.6155 9.77923 66.109 10.8259 64.0688 12.919C62.0286 15.0122 60.921 17.5124 60.921 20.4196C60.921 23.3267 61.9703 25.8845 64.0688 27.9195C66.1673 30.0133 68.6738 31.0593 71.5884 31.0593C73.8035 31.0593 75.7854 30.4778 77.5343 29.2568V30.7686H84.4709V25.9426L82.4891 25.9432ZM71.9382 26.5247C68.4989 26.5247 65.7593 23.7337 65.7593 20.3608C65.7593 16.9309 68.5572 14.1976 71.9382 14.1976C75.319 14.1976 78.0005 16.9885 78.0005 20.3608C78.0005 23.7337 75.319 26.5247 71.9382 26.5247ZM133.902 14.7797V9.95368C130.521 9.95368 127.84 11.0002 126.499 12.1632V9.95368H110.527V14.7797H112.509L106.738 24.7804V10.0118H100.56L91.8158 24.8385V14.7797H93.7976V9.95368H85.0539V14.7797H87.0357V30.7111H93.9144L101.958 17.1635V30.7111H108.72L118.105 14.7797H121.661V25.9432H119.679V30.7691H128.423V25.9432H126.44V20.3033C126.499 17.6287 128.015 14.8959 133.902 14.7797ZM35.9723 21.8731C36.0306 21.408 36.0889 20.9423 36.0889 20.4196C36.0889 14.5471 31.4256 9.77923 25.6547 9.77923C19.8838 9.77923 15.2206 14.5471 15.2206 20.4196C15.2206 26.2921 19.8838 31.0599 25.6547 31.0599C30.1431 31.0599 33.9904 28.1527 35.4477 24.1408H30.4346C29.3271 25.7106 27.5783 26.6991 25.5965 26.6991C22.7402 26.6991 20.4085 24.6641 19.7673 21.8731H35.9723ZM25.5965 14.1401C28.103 14.1401 30.2597 15.7681 31.1341 18.0356H20.0587C20.9331 15.7681 23.0899 14.1401 25.5965 14.1401ZM174.764 21.8731C174.823 21.408 174.881 20.9423 174.881 20.4196C174.881 14.5471 170.217 9.77923 164.447 9.77923C158.676 9.77923 154.013 14.5471 154.013 20.4196C154.013 26.2921 158.676 31.0599 164.447 31.0599C168.935 31.0599 172.783 28.1527 174.241 24.1408H169.226C168.12 25.7106 166.371 26.6991 164.388 26.6991C161.532 26.6991 159.201 24.6641 158.56 21.8731H174.764ZM164.388 14.1401C166.895 14.1401 169.051 15.7681 169.926 18.0356H158.851C159.725 15.7681 161.882 14.1401 164.388 14.1401Z" fill="#DE122A"/>
</svg>
