<svg width="380" height="365" viewBox="0 0 380 365" fill="none" xmlns="http://www.w3.org/2000/svg">
<path d="M106.678 105.647C90.7532 117.899 87.7616 140.632 99.8732 156.374C100.786 157.561 101.669 158.706 102.752 159.701C103.441 160.908 103.568 161.742 103.415 162.317C103.265 162.884 102.817 163.286 102.14 163.571C101.461 163.856 100.597 164.002 99.7128 164.074C98.8357 164.145 97.9644 164.143 97.2662 164.145C93.0336 164.04 88.7971 165.349 85.1634 168.145C80.4374 171.781 77.8756 177.103 77.6927 182.547L77.646 182.979C77.3924 185.095 76.8346 186.522 76.1363 187.43C75.3995 188.387 74.496 188.782 73.5695 188.802C72.6303 188.822 71.64 188.456 70.762 187.838C69.885 187.222 69.1408 186.369 68.6906 185.453L68.6769 185.424L67.9879 184.529C60.7703 175.148 47.2442 173.439 37.7968 180.707C28.3495 187.976 26.5341 201.487 33.7515 210.869C36.0495 213.856 38.9988 216.132 42.3234 217.475L42.3233 217.476C44.4312 218.366 45.8601 219.713 46.2251 221.092C46.4047 221.771 46.3329 222.472 45.9414 223.167C45.5489 223.864 44.8257 224.57 43.677 225.227C42.7091 225.541 41.8426 225.992 41.0138 226.629C36.9638 229.745 36.1692 235.649 39.2653 239.674C42.3603 243.696 48.203 244.497 52.3219 241.328C53.5054 240.417 54.4077 239.283 55.0127 238.048C55.9874 236.2 57.0215 235.15 58.0014 234.592C58.977 234.038 59.925 233.957 60.7627 234.095C61.6062 234.233 62.341 234.594 62.8694 234.927C63.1324 235.093 63.3415 235.249 63.4838 235.364C63.5547 235.421 63.6086 235.467 63.6444 235.499C63.6478 235.502 63.6514 235.504 63.6545 235.507C64.1305 236.537 64.7354 237.461 65.4017 238.327C71.0751 245.701 81.6946 246.979 89.1163 241.269C90.8202 239.958 92.2659 238.312 93.3054 236.549C94.7379 235.275 95.9672 234.709 96.9935 234.551C98.0232 234.393 98.8788 234.64 99.5693 235.043C100.265 235.449 100.794 236.015 101.152 236.486C101.33 236.72 101.463 236.928 101.551 237.077C101.595 237.151 101.628 237.211 101.649 237.25C101.66 237.27 101.668 237.285 101.673 237.295C101.676 237.299 101.677 237.304 101.678 237.306L101.679 237.307L101.685 237.32C102.467 238.757 103.321 240.148 104.364 241.505C114.415 254.569 133.295 256.956 146.454 246.833C158.034 237.923 161.423 222.302 155.172 209.78C154.784 208.405 154.89 207.42 155.227 206.709C155.567 205.991 156.164 205.508 156.833 205.18C157.504 204.852 158.232 204.69 158.799 204.612C159.08 204.573 159.319 204.555 159.487 204.547C159.57 204.543 159.636 204.542 159.68 204.541C159.693 204.541 159.703 204.54 159.712 204.54C165.883 206.044 172.662 204.816 178.06 200.663C183.469 196.502 186.395 190.247 186.564 183.952L186.565 183.945C186.571 182.256 186.993 181.255 187.563 180.671C188.133 180.088 188.901 179.87 189.711 179.855C190.523 179.84 191.346 180.031 191.974 180.231C192.286 180.33 192.547 180.431 192.728 180.506C192.818 180.543 192.889 180.574 192.936 180.596C192.945 180.6 192.954 180.603 192.962 180.607C205.599 193.328 226.053 194.867 240.736 183.571L240.699 183.488C254.596 172.684 258.542 153.883 251.022 138.774C249.745 136.15 249.356 134.13 249.463 132.581C249.57 131.039 250.171 129.943 250.92 129.16C251.673 128.372 252.585 127.894 253.316 127.612C253.681 127.471 253.998 127.382 254.222 127.327C254.334 127.299 254.423 127.279 254.482 127.268C254.512 127.262 254.536 127.257 254.551 127.255C256.488 127.185 258.442 126.561 260.047 125.327C264.095 122.212 264.944 116.375 261.795 112.283C260.096 110.074 257.639 108.886 255.172 108.689C253.053 108.108 251.674 107.266 250.787 106.348C249.898 105.429 249.487 104.417 249.331 103.473C249.175 102.525 249.276 101.642 249.419 100.992C249.49 100.668 249.571 100.405 249.633 100.224C249.665 100.133 249.691 100.063 249.71 100.017C249.719 99.994 249.726 99.9764 249.73 99.9654C249.733 99.9603 249.734 99.9566 249.735 99.9542C249.736 99.953 249.737 99.952 249.737 99.9517L249.737 99.9489C252.76 92.9726 252.035 84.6591 247.119 78.2685C239.901 68.8873 226.376 67.1782 216.928 74.4464C211.944 78.2814 209.101 83.911 208.554 89.7112C207.634 92.0213 206.519 93.3384 205.39 94.039C204.259 94.7409 203.08 94.8469 201.995 94.6702C200.904 94.4925 199.915 94.0292 199.194 93.6039C198.835 93.3921 198.545 93.1917 198.346 93.0449C198.247 92.9717 198.17 92.9121 198.119 92.8711C198.095 92.8519 198.077 92.8361 198.064 92.8257C190.793 83.8283 177.509 82.281 168.208 89.4371C163.425 93.1166 160.645 98.2734 159.895 103.808C159.414 105.411 158.716 106.379 157.964 106.948C157.21 107.519 156.373 107.711 155.579 107.71C154.781 107.709 154.034 107.512 153.481 107.311C153.206 107.21 152.982 107.111 152.828 107.037C152.751 107 152.692 106.969 152.653 106.948C152.639 106.941 152.629 106.934 152.62 106.929C139.882 95.8873 120.621 94.9201 106.678 105.647Z" fill="#83FFCB" stroke="black" stroke-width="0.633313"/>
<path d="M168.967 158.085C153.042 170.337 150.051 193.069 162.162 208.812C163.075 209.998 163.958 211.143 165.041 212.139C165.73 213.345 165.857 214.18 165.704 214.755C165.554 215.322 165.106 215.724 164.429 216.008C163.75 216.294 162.886 216.44 162.002 216.512C161.125 216.583 160.253 216.58 159.555 216.583C155.323 216.477 151.086 217.787 147.452 220.582C142.726 224.218 140.165 229.541 139.982 234.984L139.935 235.417C139.681 237.533 139.124 238.959 138.425 239.867C137.689 240.825 136.785 241.22 135.859 241.239C134.919 241.259 133.929 240.893 133.051 240.276C132.174 239.659 131.43 238.807 130.98 237.891L130.966 237.862L130.277 236.966C123.059 227.585 109.533 225.877 100.086 233.145C90.6385 240.413 88.8232 253.925 96.0406 263.306C98.3386 266.293 101.288 268.569 104.612 269.912L104.612 269.914C106.72 270.804 108.149 272.151 108.514 273.53C108.694 274.208 108.622 274.91 108.23 275.605C107.838 276.302 107.115 277.007 105.966 277.665C104.998 277.978 104.132 278.429 103.303 279.067C99.2528 282.183 98.4582 288.087 101.554 292.111C104.649 296.134 110.492 296.934 114.611 293.765C115.794 292.855 116.697 291.72 117.302 290.485C118.276 288.638 119.311 287.587 120.29 287.03C121.266 286.475 122.214 286.394 123.052 286.532C123.895 286.671 124.63 287.032 125.158 287.364C125.421 287.53 125.631 287.687 125.773 287.801C125.844 287.858 125.898 287.905 125.933 287.936C125.937 287.939 125.94 287.942 125.944 287.944C126.42 288.974 127.024 289.899 127.691 290.765C133.364 298.139 143.984 299.416 151.405 293.707C153.109 292.396 154.555 290.749 155.594 288.987C157.027 287.712 158.256 287.146 159.283 286.988C160.312 286.83 161.168 287.078 161.858 287.481C162.554 287.887 163.084 288.452 163.441 288.923C163.619 289.157 163.752 289.366 163.84 289.514C163.885 289.588 163.917 289.648 163.938 289.688C163.949 289.708 163.958 289.722 163.962 289.732C163.965 289.737 163.966 289.741 163.967 289.743L163.968 289.745L163.974 289.757C164.756 291.195 165.61 292.586 166.653 293.942C176.704 307.006 195.584 309.393 208.743 299.27C220.324 290.36 223.712 274.739 217.461 262.218C217.073 260.843 217.179 259.858 217.516 259.147C217.856 258.429 218.453 257.945 219.122 257.618C219.793 257.29 220.521 257.128 221.088 257.049C221.37 257.011 221.608 256.993 221.776 256.985C221.859 256.98 221.925 256.979 221.969 256.978C221.982 256.978 221.992 256.978 222.001 256.978C228.172 258.481 234.951 257.254 240.349 253.101C245.758 248.939 248.684 242.685 248.853 236.389L248.854 236.382C248.86 234.694 249.282 233.692 249.852 233.108C250.422 232.525 251.19 232.307 252 232.292C252.812 232.277 253.635 232.468 254.263 232.668C254.575 232.768 254.836 232.868 255.017 232.943C255.107 232.981 255.178 233.012 255.225 233.033C255.235 233.037 255.244 233.041 255.251 233.044C267.888 245.765 288.342 247.305 303.025 236.008L302.988 235.926C316.885 225.121 320.831 206.321 313.311 191.211C312.035 188.587 311.645 186.567 311.752 185.018C311.859 183.477 312.46 182.38 313.209 181.598C313.962 180.81 314.874 180.331 315.606 180.049C315.97 179.909 316.287 179.819 316.511 179.764C316.623 179.737 316.712 179.717 316.772 179.705C316.801 179.7 316.826 179.695 316.84 179.692C318.777 179.623 320.731 178.999 322.336 177.764C326.384 174.65 327.233 168.813 324.084 164.72C322.385 162.512 319.929 161.324 317.461 161.127C315.342 160.546 313.963 159.704 313.076 158.786C312.187 157.866 311.776 156.854 311.62 155.91C311.464 154.962 311.565 154.079 311.708 153.43C311.779 153.106 311.86 152.842 311.922 152.661C311.954 152.571 311.98 152.501 311.999 152.455C312.008 152.431 312.015 152.414 312.019 152.403C312.022 152.398 312.023 152.394 312.024 152.392C312.025 152.391 312.026 152.39 312.026 152.389L312.026 152.386C315.05 145.41 314.324 137.097 309.408 130.706C302.19 121.325 288.665 119.616 279.217 126.884C274.233 130.719 271.39 136.349 270.843 142.149C269.923 144.459 268.808 145.776 267.679 146.477C266.548 147.178 265.369 147.284 264.284 147.108C263.193 146.93 262.204 146.467 261.483 146.041C261.124 145.83 260.835 145.629 260.636 145.482C260.536 145.409 260.459 145.35 260.408 145.309C260.384 145.289 260.366 145.274 260.354 145.263C253.082 136.266 239.798 134.718 230.497 141.875C225.714 145.554 222.935 150.711 222.184 156.246C221.703 157.848 221.005 158.817 220.253 159.386C219.499 159.957 218.662 160.149 217.868 160.147C217.07 160.146 216.323 159.949 215.77 159.748C215.495 159.648 215.271 159.548 215.117 159.474C215.04 159.437 214.981 159.406 214.942 159.385C214.929 159.378 214.918 159.372 214.909 159.367C202.171 148.325 182.91 147.358 168.967 158.085Z" fill="#F78DC5" stroke="black" stroke-width="0.633313"/>
<path d="M160.67 113.395C176.595 101.143 199.335 104.079 211.447 119.822C212.359 121.008 213.24 122.155 213.925 123.457C214.914 124.432 215.688 124.769 216.283 124.769C216.869 124.769 217.373 124.439 217.822 123.857C218.272 123.274 218.634 122.477 218.93 121.641C219.224 120.811 219.445 119.968 219.626 119.294C220.61 115.176 222.961 111.417 226.595 108.621C231.321 104.985 237.122 103.873 242.431 105.092L242.861 105.158C244.971 105.455 246.493 105.282 247.549 104.839C248.664 104.373 249.277 103.601 249.534 102.71C249.794 101.807 249.694 100.756 249.322 99.7494C248.951 98.7437 248.318 97.8059 247.548 97.1358L247.523 97.1152L246.834 96.2197C239.617 86.8382 241.433 73.3262 250.881 66.0578C260.328 58.7895 273.853 60.4987 281.071 69.8799C283.369 72.8669 284.813 76.3011 285.259 79.859L285.26 79.8591C285.58 82.1248 286.516 83.8513 287.755 84.5576C288.365 84.9051 289.061 85.0155 289.834 84.8153C290.608 84.6146 291.475 84.0965 292.405 83.1547C292.956 82.2996 293.614 81.5776 294.443 80.9399C298.493 77.824 304.404 78.5696 307.5 82.5939C310.595 86.6167 309.87 92.4693 305.751 95.6382C304.568 96.5487 303.24 97.1301 301.891 97.3982C299.855 97.8668 298.575 98.597 297.785 99.4013C296.999 100.202 296.678 101.098 296.596 101.943C296.514 102.794 296.674 103.596 296.86 104.192C296.953 104.489 297.051 104.731 297.125 104.898C297.162 104.981 297.193 105.045 297.214 105.088C297.216 105.092 297.218 105.096 297.22 105.1C298.093 105.824 298.832 106.646 299.498 107.512C305.171 114.886 303.684 125.478 296.262 131.188C294.558 132.499 292.596 133.474 290.626 134.027C289.027 135.085 288.164 136.128 287.749 137.08C287.332 138.034 287.352 138.925 287.565 139.696C287.779 140.472 288.189 141.129 288.553 141.595C288.734 141.827 288.901 142.009 289.022 142.133C289.082 142.194 289.132 142.241 289.165 142.272C289.181 142.287 289.193 142.299 289.201 142.307C289.205 142.31 289.209 142.312 289.211 142.314L289.212 142.316L289.222 142.325C290.412 143.449 291.537 144.63 292.581 145.987C302.632 159.051 300.099 177.912 286.941 188.035C275.36 196.945 259.392 196.215 248.892 186.963C247.662 186.236 246.682 186.086 245.909 186.23C245.128 186.374 244.507 186.827 244.019 187.39C243.53 187.955 243.187 188.616 242.966 189.144C242.856 189.407 242.778 189.633 242.727 189.793C242.702 189.872 242.683 189.936 242.671 189.978C242.668 189.99 242.665 190 242.663 190.008C242.534 196.359 239.609 202.596 234.211 206.749C228.803 210.911 222.007 212.135 215.878 210.685L215.871 210.684C214.238 210.257 213.162 210.408 212.451 210.81C211.741 211.211 211.334 211.897 211.112 212.677C210.889 213.458 210.862 214.302 210.895 214.96C210.911 215.288 210.941 215.565 210.967 215.76C210.98 215.856 210.992 215.933 211.001 215.984C211.002 215.994 211.003 216.004 211.005 216.012C220.061 231.488 216.305 251.652 201.622 262.949L201.552 262.892C187.546 273.555 168.362 272.549 155.686 261.407C153.476 259.501 151.624 258.606 150.099 258.313C148.582 258.021 147.368 258.321 146.419 258.844C145.465 259.37 144.768 260.128 144.308 260.763C144.079 261.08 143.911 261.363 143.801 261.566C143.745 261.667 143.704 261.748 143.677 261.802C143.664 261.83 143.653 261.852 143.647 261.865C143.083 263.72 141.979 265.449 140.375 266.683C136.326 269.798 130.467 269.122 127.318 265.029C125.619 262.821 125.101 260.141 125.543 257.706C125.524 255.509 125.064 253.96 124.404 252.867C123.743 251.772 122.87 251.115 121.998 250.723C121.121 250.329 120.242 250.201 119.578 250.172C119.247 250.158 118.971 250.168 118.78 250.182C118.684 250.189 118.61 250.197 118.561 250.203C118.536 250.206 118.517 250.208 118.505 250.21C118.5 250.21 118.496 250.211 118.493 250.212C118.492 250.212 118.491 250.213 118.49 250.213L118.488 250.212C110.969 251.346 103.12 248.514 98.203 242.123C90.9857 232.742 92.801 219.23 102.248 211.962C107.233 208.127 113.403 206.822 119.15 207.781C121.618 207.484 123.177 206.744 124.144 205.832C125.112 204.919 125.517 203.806 125.625 202.712C125.733 201.612 125.538 200.538 125.312 199.732C125.199 199.33 125.08 198.999 124.989 198.769C124.944 198.654 124.906 198.564 124.879 198.505C124.867 198.476 124.856 198.455 124.849 198.44C118.017 189.105 119.927 175.868 129.228 168.712C134.011 165.033 139.708 163.668 145.25 164.361C146.923 164.308 148.037 163.881 148.78 163.3C149.525 162.718 149.925 161.958 150.128 161.19C150.331 160.419 150.332 159.646 150.279 159.06C150.253 158.769 150.214 158.527 150.182 158.359C150.166 158.275 150.151 158.21 150.141 158.166C150.138 158.152 150.134 158.14 150.132 158.13C142.724 142.987 146.727 124.122 160.67 113.395Z" fill="white" stroke="black" stroke-width="0.633313"/>
<path opacity="0.27" fill-rule="evenodd" clip-rule="evenodd" d="M198.11 289.353C188.364 296.85 174.964 296.172 166.122 288.399C159.848 282.985 157.327 288.811 157.327 288.811C156.945 290.077 156.193 291.253 155.105 292.091C152.361 294.202 148.393 293.742 146.261 290.971C145.105 289.469 144.756 287.645 145.063 285.988C145.021 279.667 139.861 280.498 139.861 280.498C134.664 281.281 129.242 279.324 125.846 274.91C120.861 268.43 122.114 259.095 128.642 254.072C132.096 251.415 136.374 250.516 140.357 251.189C147.469 250.351 144.547 244.302 144.547 244.302C139.812 237.854 141.126 228.696 147.56 223.746C150.872 221.198 154.816 220.256 158.654 220.742C163.511 220.594 162.293 216.074 162.293 216.074C157.13 205.545 159.909 192.419 169.607 184.958C180.677 176.441 196.482 178.484 204.899 189.424C205.55 190.269 206.164 191.067 206.636 191.975C209.518 194.84 210.519 190.856 211.027 188.97C211.705 186.132 213.325 183.539 215.833 181.61C219.097 179.099 223.103 178.334 226.765 179.179C233.406 180.274 232.815 175.198 230.535 173.214C230.391 173.026 230.21 172.792 230.066 172.604C225.08 166.124 226.333 156.789 232.862 151.766C239.39 146.743 248.735 147.926 253.72 154.405C255.309 156.471 256.306 158.844 256.613 161.299C257.07 164.535 259.313 166.472 262.016 163.72C262.392 163.132 262.84 162.637 263.407 162.201C266.151 160.09 270.156 160.596 272.251 163.32C274.347 166.043 273.857 170.008 271.066 172.155C270.262 172.774 269.36 173.168 268.445 173.349C262.623 174.689 265.042 179.107 265.042 179.107C265.654 179.608 266.171 180.182 266.64 180.792C270.542 185.863 269.521 193.151 264.412 197.082C263.229 197.992 261.866 198.667 260.5 199.045C255.848 202.102 259.458 205.229 259.458 205.229C260.287 206.012 261.068 206.831 261.79 207.77C268.762 216.832 267.006 229.919 257.876 236.943C249.833 243.131 238.745 242.617 231.462 236.186C227.848 234.033 226.743 238.471 226.743 238.471C226.662 242.869 224.64 247.19 220.903 250.065C217.165 252.941 212.47 253.788 208.234 252.785C203.521 251.553 204.555 256.812 204.555 256.812C210.875 267.572 208.27 281.611 198.051 289.472L198.11 289.353Z" fill="#00B2FF"/>
</svg>
