<svg width="20" height="24" viewBox="0 0 20 24" fill="none" xmlns="http://www.w3.org/2000/svg">
<path d="M7.62402 9.52148C9.11768 12.2273 11.2058 14.2353 13.9072 15.833C11.3059 17.415 9.18981 19.3482 7.63281 22.1777C6.04219 19.5273 4.05949 17.4001 1.26074 15.8682C2.6447 14.9625 3.93451 14.1282 5.02441 13.0234C5.65431 12.3845 6.16327 11.6702 6.64453 10.959C6.9728 10.4738 7.28722 9.99472 7.62402 9.52148Z" fill="white" stroke="black" stroke-width="1.09888"/>
<path d="M15.377 1.4248C16.1416 2.81022 17.2107 3.8382 18.5938 4.65625C17.2621 5.46616 16.1799 6.45669 15.3828 7.90527C14.5682 6.54765 13.5519 5.45926 12.1182 4.6748C12.8272 4.21076 13.4885 3.78378 14.0469 3.21777C14.3693 2.89069 14.6296 2.52521 14.876 2.16113C15.0441 1.91274 15.2045 1.6671 15.377 1.4248Z" fill="white" stroke="black" stroke-width="0.562563"/>
</svg>
