<svg width="20" height="24" viewBox="0 0 20 24" fill="none" xmlns="http://www.w3.org/2000/svg">
<path d="M19.3394 8.17398C19.0436 8.42468 18.7464 8.67272 18.4535 8.92575C17.9364 9.37237 17.5797 9.93458 17.2715 10.5353C17.0341 10.9982 16.9184 11.4984 16.8085 11.997C16.7508 12.2589 16.7786 12.5401 16.7736 12.8127C16.7624 13.4294 16.8873 14.0263 17.1044 14.597C17.4316 15.4571 17.9479 16.1974 18.6768 16.7703C19.0285 17.0466 19.4157 17.2787 19.7905 17.5252C19.8446 17.5608 19.9194 17.5654 20 17.5887C19.9835 17.6616 19.9758 17.7212 19.9566 17.7768C19.5871 18.846 19.1282 19.8725 18.4643 20.797C18.0378 21.391 17.6101 21.9848 17.1606 22.5615C16.8104 23.0109 16.3615 23.3568 15.8668 23.6423C15.5406 23.8306 15.1864 23.9317 14.8133 23.9323C14.4363 23.9331 14.0572 23.916 13.6829 23.8729C13.4936 23.8511 13.304 23.7727 13.13 23.6882C12.5977 23.43 12.0428 23.223 11.4677 23.1073C10.9979 23.0128 10.5105 22.9966 10.024 23.0653C9.37448 23.157 8.77989 23.4061 8.1821 23.6508C7.58284 23.8961 6.96657 24.06 6.31386 23.9777C6.10156 23.9509 5.88948 23.8724 5.69249 23.784C4.99844 23.4729 4.46186 22.9621 3.98107 22.3912C3.10214 21.3476 2.35348 20.2198 1.78131 18.9796C1.5365 18.4491 1.31624 17.9104 1.13008 17.3556C0.886229 16.629 0.679779 15.8907 0.559607 15.1384C0.404583 14.168 0.311719 13.1868 0.421266 12.1999C0.452079 11.9226 0.456754 11.642 0.496705 11.3662C0.528687 11.1455 0.597221 10.9301 0.647585 10.7119C0.865085 9.76865 1.27798 8.91484 1.8678 8.14982C2.77467 6.97368 3.96555 6.23176 5.42505 5.93327C5.88491 5.83918 6.35827 5.81206 6.82631 5.8715C7.32315 5.93455 7.80512 6.06986 8.27221 6.25051C8.64016 6.39282 8.9976 6.5651 9.37161 6.68823C9.91733 6.86783 10.4699 6.98173 11.0415 6.75223C11.6035 6.52643 12.1771 6.32956 12.7437 6.11468C13.6222 5.78144 14.5305 5.72252 15.4524 5.83611C16.5522 5.97163 17.5269 6.41009 18.394 7.09182C18.79 7.40324 19.1736 7.84084 19.3396 8.17387L19.3394 8.17398Z" fill="#999999"/>
<path d="M14.9864 0.013812C15.0068 0.297569 15.0399 0.578253 14.9693 0.86699C14.9226 1.05824 14.9382 1.26402 14.8972 1.45728C14.6769 2.49737 14.2243 3.41847 13.4487 4.16452C12.9031 4.68944 12.2732 5.08848 11.5615 5.35253C11.195 5.48847 10.8115 5.54845 10.4194 5.54209C10.342 5.54082 10.2649 5.52895 10.183 5.52164C10.0824 5.04589 10.1288 4.59302 10.2394 4.14831C10.6989 2.30029 11.8351 1.03176 13.5977 0.31039C14.0101 0.141598 14.4344 0.0110574 14.8863 3.76781e-05C14.9118 -0.000598073 14.9375 0.00692497 14.9864 0.0140242V0.013812Z" fill="#999999"/>
</svg>
