<svg width="22" height="24" viewBox="0 0 22 24" fill="none" xmlns="http://www.w3.org/2000/svg">
<g filter="url(#filter0_ii_5589_38005)">
<path d="M1.02585 0.37085C0.756112 0.658244 0.596679 1.10426 0.596679 1.68185V22.3182C0.596679 22.8967 0.756112 23.3418 1.02585 23.6292L1.09444 23.6964L12.5781 12.1363V12V11.8638L1.09444 0.302735L1.02585 0.37085Z" fill="url(#paint0_linear_5589_38005)"/>
<path d="M16.4064 15.9905L12.5791 12.1359V11.9997V11.8635L16.4073 8.00977L16.4935 8.05922L21.029 10.6532C22.3239 11.3941 22.3239 12.6062 21.029 13.348L16.4935 15.942L16.4064 15.9905Z" fill="url(#paint1_linear_5589_38005)"/>
<g filter="url(#filter1_i_5589_38005)">
<path d="M16.495 15.9414L12.5797 12L1.02832 23.6292C1.45471 24.0845 2.1601 24.1405 2.95447 23.687L16.495 15.9414Z" fill="url(#paint2_linear_5589_38005)"/>
</g>
<path d="M16.495 8.05829L2.95447 0.31359C2.1601 -0.140827 1.45471 -0.0839082 1.02832 0.371443L12.5806 12.0006L16.495 8.05829Z" fill="url(#paint3_linear_5589_38005)"/>
</g>
<defs>
<filter id="filter0_ii_5589_38005" x="0.59668" y="0" width="21.4033" height="24" filterUnits="userSpaceOnUse" color-interpolation-filters="sRGB">
<feFlood flood-opacity="0" result="BackgroundImageFix"/>
<feBlend mode="normal" in="SourceGraphic" in2="BackgroundImageFix" result="shape"/>
<feColorMatrix in="SourceAlpha" type="matrix" values="0 0 0 0 0 0 0 0 0 0 0 0 0 0 0 0 0 0 127 0" result="hardAlpha"/>
<feOffset dy="-0.139965"/>
<feComposite in2="hardAlpha" operator="arithmetic" k2="-1" k3="1"/>
<feColorMatrix type="matrix" values="0 0 0 0 0 0 0 0 0 0 0 0 0 0 0 0 0 0 0.12 0"/>
<feBlend mode="normal" in2="shape" result="effect1_innerShadow_5589_38005"/>
<feColorMatrix in="SourceAlpha" type="matrix" values="0 0 0 0 0 0 0 0 0 0 0 0 0 0 0 0 0 0 127 0" result="hardAlpha"/>
<feOffset dy="0.139965"/>
<feComposite in2="hardAlpha" operator="arithmetic" k2="-1" k3="1"/>
<feColorMatrix type="matrix" values="0 0 0 0 1 0 0 0 0 1 0 0 0 0 1 0 0 0 0.25 0"/>
<feBlend mode="normal" in2="effect1_innerShadow_5589_38005" result="effect2_innerShadow_5589_38005"/>
</filter>
<filter id="filter1_i_5589_38005" x="1.02832" y="12" width="15.4668" height="12" filterUnits="userSpaceOnUse" color-interpolation-filters="sRGB">
<feFlood flood-opacity="0" result="BackgroundImageFix"/>
<feBlend mode="normal" in="SourceGraphic" in2="BackgroundImageFix" result="shape"/>
<feColorMatrix in="SourceAlpha" type="matrix" values="0 0 0 0 0 0 0 0 0 0 0 0 0 0 0 0 0 0 127 0" result="hardAlpha"/>
<feOffset dy="-0.139965"/>
<feComposite in2="hardAlpha" operator="arithmetic" k2="-1" k3="1"/>
<feColorMatrix type="matrix" values="0 0 0 0 0 0 0 0 0 0 0 0 0 0 0 0 0 0 0.08 0"/>
<feBlend mode="normal" in2="shape" result="effect1_innerShadow_5589_38005"/>
</filter>
<linearGradient id="paint0_linear_5589_38005" x1="11.5602" y1="1.46351" x2="-4.09869" y2="17.0188" gradientUnits="userSpaceOnUse">
<stop stop-color="#00A0FF"/>
<stop offset="0.0066" stop-color="#00A1FF"/>
<stop offset="0.2601" stop-color="#00BEFF"/>
<stop offset="0.5122" stop-color="#00D2FF"/>
<stop offset="0.7604" stop-color="#00DFFF"/>
<stop offset="1" stop-color="#00E3FF"/>
</linearGradient>
<linearGradient id="paint1_linear_5589_38005" x1="22.7146" y1="11.9997" x2="0.286763" y2="11.9997" gradientUnits="userSpaceOnUse">
<stop stop-color="#FFE000"/>
<stop offset="0.4087" stop-color="#FFBD00"/>
<stop offset="0.7754" stop-color="#FFA500"/>
<stop offset="1" stop-color="#FF9C00"/>
</linearGradient>
<linearGradient id="paint2_linear_5589_38005" x1="14.3687" y1="14.1404" x2="-6.86665" y2="35.2354" gradientUnits="userSpaceOnUse">
<stop stop-color="#FF3A44"/>
<stop offset="1" stop-color="#C31162"/>
</linearGradient>
<linearGradient id="paint3_linear_5589_38005" x1="-1.88093" y1="-6.49819" x2="7.60126" y2="2.9213" gradientUnits="userSpaceOnUse">
<stop stop-color="#32A071"/>
<stop offset="0.0685" stop-color="#2DA771"/>
<stop offset="0.4762" stop-color="#15CF74"/>
<stop offset="0.8009" stop-color="#06E775"/>
<stop offset="1" stop-color="#00F076"/>
</linearGradient>
</defs>
</svg>
